<?xml version="1.0" standalone="no"?>
<!DOCTYPE svg PUBLIC "-//W3C//DTD SVG 20010904//EN"
 "http://www.w3.org/TR/2001/REC-SVG-20010904/DTD/svg10.dtd">
<svg version="1.0" xmlns="http://www.w3.org/2000/svg"
 width="4713.000000pt" height="1949.000000pt" viewBox="0 0 4713.000000 1949.000000"
 preserveAspectRatio="xMidYMid meet">

<g transform="translate(0.000000,1949.000000) scale(0.100000,-0.100000)"
fill="#000000" stroke="none">
<path d="M9280 19480 c-1922 -83 -3732 -713 -5275 -1838 -775 -565 -1465
-1246 -2049 -2022 -954 -1269 -1578 -2731 -1831 -4295 -97 -600 -131 -1079
-122 -1730 6 -409 18 -621 58 -970 261 -2326 1363 -4494 3089 -6079 1510
-1387 3365 -2241 5385 -2481 646 -76 1367 -85 2020 -25 2571 239 4925 1500
6579 3524 899 1101 1556 2411 1900 3791 437 1757 384 3605 -155 5327 -296 947
-761 1888 -1327 2688 -347 489 -653 852 -1086 1286 -360 359 -666 626 -1031
900 -1521 1141 -3305 1798 -5195 1913 -247 15 -728 21 -960 11z m880 -180
c1697 -96 3273 -613 4681 -1535 806 -528 1566 -1217 2176 -1972 1140 -1411
1856 -3107 2067 -4893 53 -450 61 -589 61 -1145 0 -339 -5 -577 -13 -685 -26
-331 -72 -724 -87 -738 -3 -3 -416 2 -918 12 -865 17 -914 17 -955 1 -24 -10
-44 -16 -46 -14 -2 2 -11 123 -20 269 l-16 264 -47 49 c-27 27 -78 75 -114
108 l-66 59 -413 -45 c-228 -25 -422 -45 -432 -45 -14 0 -18 8 -18 34 0 48
-19 97 -84 212 -47 84 -65 107 -111 140 -43 30 -69 61 -116 136 -45 72 -72
105 -106 127 -26 17 -50 31 -55 31 -19 0 -118 67 -168 115 -30 29 -69 61 -87
71 -28 16 -33 24 -39 73 -13 112 -75 265 -157 385 -54 80 -180 210 -247 256
-179 122 -426 200 -631 200 l-89 0 0 1104 0 1104 38 -9 c20 -5 43 -9 49 -9 12
0 -629 752 -646 758 -4 1 -142 -147 -306 -330 -165 -183 -318 -352 -340 -376
l-39 -44 37 7 37 7 0 -331 0 -332 -30 16 c-16 8 -31 15 -35 15 -3 0 -5 -47 -5
-105 0 -58 -3 -105 -7 -105 -5 0 -39 20 -78 44 l-70 43 -5 118 -5 118 -125 73
c-69 40 -128 73 -132 74 -4 0 -9 -47 -10 -105 l-3 -104 -62 40 -63 39 0 109 0
108 -111 67 c-61 36 -115 66 -120 66 -5 0 -9 -45 -9 -100 0 -55 -2 -100 -4
-100 -3 0 -31 16 -63 35 l-58 35 -5 112 -5 111 -105 59 c-58 32 -111 58 -117
58 -10 0 -13 -25 -13 -90 0 -49 -2 -90 -5 -90 -2 0 -29 16 -60 35 l-55 36 0
102 0 103 -109 62 c-60 34 -114 62 -120 62 -7 0 -11 -30 -11 -91 l0 -90 -50
28 -50 28 0 100 0 100 -119 68 c-65 37 -121 67 -124 67 -4 0 -8 -40 -9 -89
l-3 -90 -57 35 -58 36 0 98 0 98 -107 61 -108 60 -5 -89 -5 -89 -57 35 -58 36
0 93 0 93 -108 61 c-60 34 -112 61 -115 61 -4 0 -7 -36 -7 -80 0 -44 -2 -80
-5 -80 -3 0 -30 16 -60 35 l-55 35 0 89 0 88 -107 65 -108 64 -3 97 -3 96 141
213 140 213 0 366 0 366 -67 30 c-38 17 -84 36 -104 42 -28 9 -117 92 -363
341 -180 182 -329 330 -331 330 -3 0 -160 -150 -349 -334 -213 -205 -356 -336
-372 -340 -15 -4 -60 -23 -100 -42 l-74 -35 0 -369 c0 -202 4 -370 8 -372 5
-1 59 -98 121 -215 l112 -211 -3 -66 -3 -67 -95 -42 -95 -43 -3 -108 -3 -107
-65 -30 c-36 -16 -70 -29 -75 -29 -5 0 -9 45 -9 100 0 55 -2 100 -5 100 -3 0
-57 -23 -120 -51 l-115 -52 0 -107 0 -107 -52 -23 c-29 -12 -58 -24 -65 -27
-9 -4 -13 22 -15 100 l-3 105 -110 -48 -110 -48 -3 -110 -3 -110 -57 -24 -57
-25 -3 103 c-1 57 -6 104 -10 103 -4 0 -54 -22 -112 -48 l-105 -47 -3 -109 -3
-110 -72 -32 -72 -32 -3 105 c-2 78 -6 105 -15 101 -7 -2 -63 -26 -124 -52
l-113 -48 0 -109 0 -109 -74 -35 c-41 -19 -77 -34 -80 -34 -3 0 -7 47 -8 104
l-3 105 -117 -51 -118 -50 0 -113 0 -112 -47 -19 c-27 -11 -51 -20 -54 -22 -3
-1 -9 62 -12 140 -4 109 -10 160 -27 213 -96 304 -337 496 -641 512 -335 18
-620 -187 -720 -517 -23 -75 -23 -75 -29 -945 -4 -639 -8 -875 -17 -890 -32
-57 -176 -166 -343 -260 -162 -91 -290 -212 -353 -333 -19 -37 -83 -181 -142
-320 -59 -139 -124 -276 -144 -305 -25 -36 -83 -87 -190 -168 -84 -64 -172
-134 -195 -156 -48 -45 -121 -168 -196 -327 l-49 -106 -98 -72 c-53 -40 -144
-100 -201 -135 -133 -81 -181 -121 -243 -202 -65 -86 -213 -385 -235 -476 -9
-38 -21 -78 -25 -87 -6 -11 -5 -25 3 -38 11 -17 9 -27 -9 -62 -66 -128 -87
-219 -102 -446 -5 -68 -12 -127 -17 -132 -9 -7 -2171 33 -2179 42 -8 7 -55
280 -85 488 -70 489 -94 843 -94 1390 0 429 8 595 45 970 176 1780 854 3483
1953 4905 603 780 1337 1474 2154 2035 1078 741 2336 1262 3607 1494 445 81
747 116 1290 149 127 8 778 6 935 -3z m-223 -3736 c-1 -1 -43 6 -92 16 -155
31 -283 43 -480 43 -199 0 -330 -12 -479 -44 -49 -10 -91 -18 -92 -16 -2 2
128 130 289 285 l292 281 282 -282 c155 -154 281 -282 280 -283z m-517 -43 l0
-49 68 -7 c37 -3 82 -8 100 -11 l32 -5 0 51 c0 55 3 57 68 44 29 -6 31 -9 34
-57 l3 -51 85 -19 c123 -27 115 -29 118 30 l3 52 29 -11 c27 -9 29 -14 32 -65
l3 -55 73 -33 72 -34 0 60 c0 62 4 67 33 45 16 -12 17 -40 17 -324 l0 -311
-46 20 c-26 11 -97 33 -158 49 -433 115 -1016 96 -1393 -46 l-63 -23 0 318 0
318 25 11 c40 19 45 15 45 -33 0 -25 2 -45 3 -45 2 0 41 14 87 30 46 17 84 30
86 30 2 0 0 22 -3 49 -5 44 -4 49 18 54 45 12 49 9 49 -38 0 -54 -5 -54 158
-19 18 4 22 11 22 42 0 49 8 59 53 64 l37 4 0 -49 0 -50 61 7 c34 3 82 6 105
6 l44 0 0 50 0 50 50 0 50 0 0 -49z m289 -677 c64 -8 154 -24 201 -34 103 -24
270 -80 270 -91 0 -4 -56 -93 -125 -198 l-125 -190 -57 20 c-142 49 -265 64
-508 64 -252 -1 -343 -14 -525 -75 -47 -15 -86 -27 -86 -27 -20 25 -212 403
-207 408 14 13 138 56 224 78 276 68 630 85 938 45z m-19 -498 c47 -10 115
-26 153 -37 l67 -20 0 -508 0 -509 -82 -22 c-140 -38 -226 -50 -393 -56 -226
-9 -434 21 -610 87 l-55 20 0 482 0 482 63 22 c83 30 172 51 276 68 119 20
465 14 581 -9z m-970 -649 l0 -392 -997 -439 c-549 -242 -1046 -461 -1105
-487 l-108 -48 0 277 0 277 80 35 80 34 0 112 0 111 73 31 72 30 5 -107 5
-107 123 58 122 57 0 109 0 108 75 31 75 32 0 -105 c0 -57 3 -104 8 -104 4 0
60 23 124 52 l117 53 1 108 0 108 63 28 62 28 3 -104 c1 -56 5 -103 7 -103 3
0 52 21 110 46 l105 46 0 108 0 107 59 27 c32 14 61 26 65 26 3 0 6 -45 6
-100 0 -55 3 -100 8 -100 4 0 55 21 115 47 l107 47 0 106 0 107 70 31 70 31 0
-98 c0 -54 3 -100 6 -103 3 -3 58 18 122 46 l117 53 5 108 5 108 70 33 c39 18
71 33 73 33 1 1 2 -176 2 -392z m1368 270 l52 -32 0 -90 0 -90 103 -62 102
-62 3 85 c1 46 6 84 10 84 4 -1 32 -16 62 -34 l55 -32 3 -93 3 -92 100 -64
c55 -36 102 -65 104 -65 3 0 5 41 5 90 0 50 2 90 4 90 2 0 30 -15 62 -33 l59
-33 3 -99 3 -100 101 -60 c56 -33 105 -61 110 -63 4 -2 8 37 8 87 0 50 2 91 4
91 2 0 36 -18 75 -41 l71 -41 0 -98 0 -99 100 -60 100 -60 0 99 0 99 70 -40
70 -41 0 -101 0 -102 108 -68 107 -68 3 101 3 101 69 -38 69 -38 3 -110 3
-110 110 -67 110 -67 3 105 c1 58 6 104 10 102 4 -2 35 -19 69 -38 l63 -35 0
-110 0 -110 115 -72 114 -72 3 109 3 109 82 -47 83 -47 0 -116 0 -116 119 -72
c66 -39 124 -71 130 -71 7 0 11 37 11 106 0 58 3 104 8 102 39 -17 171 -94
169 -99 -1 -4 -35 -35 -74 -69 l-73 -63 0 -122 0 -122 -52 -49 -53 -49 -3 113
c-1 61 -6 112 -10 112 -4 0 -52 -39 -107 -86 -100 -85 -100 -85 -105 -137 l-5
-53 -1325 817 -1325 817 -3 382 -2 382 37 -22 c21 -12 62 -36 91 -53z m-4124
-227 c215 -55 386 -215 462 -431 l29 -84 3 -462 c3 -459 3 -462 -19 -515 -65
-152 -182 -279 -321 -347 -97 -47 -181 -71 -254 -71 -52 0 -52 0 -114 70 -34
39 -66 70 -71 70 -5 0 -9 -27 -9 -60 0 -65 -5 -69 -54 -50 -26 9 -26 11 -26
118 l0 108 -107 119 -108 120 -3 -124 -3 -123 -34 43 -35 44 0 125 -1 125 -80
90 -80 90 4 310 c5 349 8 370 80 510 136 263 449 400 741 325z m7861 -406
c136 -157 245 -287 243 -290 -3 -2 -113 22 -246 53 l-242 58 0 217 c0 119 -3
223 -6 232 -3 9 -4 16 -1 16 3 0 116 -129 252 -286z m-4969 -113 c182 -60 285
-75 519 -75 216 0 332 15 475 60 41 13 81 24 88 24 15 0 622 -371 622 -381 0
-10 -155 -78 -249 -109 -250 -81 -483 -114 -826 -114 -398 -1 -709 47 -1036
159 -105 37 -361 155 -372 172 -3 5 143 75 326 156 183 80 333 146 333 147 1
0 55 -18 120 -39z m4684 -1218 l0 -1106 -77 74 c-86 83 -182 155 -255 190
l-48 23 0 505 0 506 -83 46 -82 46 0 354 0 353 270 57 c149 31 271 57 273 58
1 1 2 -497 2 -1106z m276 1047 c115 -28 217 -53 227 -56 16 -5 17 -67 17
-1115 0 -915 -2 -1109 -13 -1109 -8 0 -40 11 -73 24 -72 30 -206 56 -283 56
-31 0 -66 3 -78 6 l-23 6 0 1119 c0 629 4 1119 9 1119 5 0 102 -23 217 -50z
m-5768 -134 c64 -40 200 -106 303 -146 683 -266 1608 -264 2175 4 l94 45 1000
-617 1000 -617 0 -46 c0 -42 -3 -48 -55 -93 l-55 -47 0 121 0 121 -120 -101
-120 -101 0 -129 0 -129 -52 -50 -53 -50 -5 126 -5 127 -122 -108 -123 -107 0
-134 0 -133 -52 -46 -53 -46 -3 126 c-1 69 -6 124 -11 122 -4 -2 -58 -46 -119
-98 l-111 -95 0 -136 -1 -136 -52 -49 -53 -49 -3 128 c-1 70 -5 127 -8 127 -3
0 -28 -19 -55 -42 l-50 -42 -197 195 c-108 107 -249 245 -313 308 l-116 113
-347 -312 c-190 -172 -346 -316 -346 -320 0 -4 34 -5 75 -2 l75 5 0 -117 0
-116 -135 0 -135 0 0 -110 0 -110 -110 0 -110 0 0 110 0 110 -140 0 -140 0 0
-110 0 -110 -95 0 -94 0 -3 108 -3 107 -145 0 -145 0 -3 -107 -3 -108 -84 0
-85 0 0 110 0 111 -147 -3 -148 -3 -3 -107 -3 -108 -89 0 -90 0 0 110 0 110
-125 0 -125 0 0 95 0 94 60 3 60 3 -345 310 c-189 171 -348 310 -354 310 -5 0
-132 -117 -281 -260 -150 -143 -278 -261 -284 -262 -6 -2 -58 48 -116 111
l-105 113 -5 -158 -5 -159 -57 64 -58 65 0 170 0 171 -120 130 -120 130 0
-153 0 -152 -50 55 -49 55 -1 157 0 158 -107 116 -108 116 -5 -138 -5 -138
-42 53 -43 54 0 146 0 146 87 17 c217 42 405 190 506 399 l42 85 750 332 c413
182 751 331 753 331 1 1 19 -10 40 -23z m-2798 -637 l0 -126 85 -108 85 -108
0 134 0 134 60 -65 59 -65 1 -132 0 -133 88 -111 87 -111 5 138 5 138 48 -56
47 -55 0 -142 0 -142 88 -109 c48 -60 90 -109 95 -110 4 0 7 64 7 143 l1 142
59 -65 59 -65 1 -154 0 -153 91 -109 c51 -60 96 -109 100 -109 5 0 9 66 9 148
l1 147 69 -75 70 -75 0 -170 1 -170 102 -117 c56 -64 105 -117 110 -117 4 -1
7 71 7 158 l0 159 72 -74 71 -74 -46 -41 c-26 -22 -47 -44 -47 -48 0 -4 23 -5
50 -1 l50 6 0 -619 0 -620 -39 49 c-21 27 -403 523 -850 1102 l-811 1053 0
511 0 511 55 -59 54 -59 1 -126z m7139 -1835 l-732 -732 -58 -11 c-33 -7 -59
-16 -59 -22 0 -5 7 -21 16 -34 16 -24 15 -26 -130 -172 l-145 -148 -1 590 0
590 58 48 57 47 3 -131 c1 -72 6 -129 11 -127 5 2 52 44 105 95 l96 92 0 133
0 133 68 56 67 57 5 -128 5 -129 102 92 103 92 1 135 0 135 72 62 72 61 3
-129 3 -130 104 97 105 97 0 127 0 128 64 56 c35 31 67 56 70 56 3 0 7 -55 8
-121 l3 -122 103 98 102 97 0 122 0 122 54 47 c30 26 57 47 60 47 3 0 7 -52 8
-116 l3 -115 103 91 102 91 0 122 -1 122 58 52 58 52 3 -472 2 -472 -731 -731z
m-6721 1351 c2 -2 2 -18 0 -35 l-3 -32 -34 42 -34 42 34 -7 c19 -4 35 -9 37
-10z m-159 -850 l361 -469 -37 -11 c-21 -6 -60 -27 -88 -47 -27 -19 -77 -50
-110 -69 -33 -18 -84 -52 -113 -76 -56 -46 -165 -163 -158 -170 9 -9 47 19 89
64 55 60 96 85 182 111 39 12 95 39 125 60 55 38 93 56 140 65 23 5 42 -17
202 -226 98 -128 218 -285 268 -349 l90 -116 -51 -17 c-28 -10 -72 -36 -98
-59 -26 -23 -63 -52 -83 -64 -20 -13 -71 -62 -114 -110 -42 -48 -81 -88 -86
-90 -4 -2 -8 -13 -8 -25 0 -17 16 -6 78 55 48 49 96 85 127 99 28 12 84 46
125 74 41 29 87 55 102 59 14 3 32 8 40 11 10 4 67 -63 176 -204 89 -115 162
-212 162 -215 0 -3 -240 -6 -533 -6 -294 0 -609 -3 -700 -7 l-167 -6 -2 -1160
-3 -1161 -65 -16 c-74 -18 -145 -56 -245 -133 -56 -43 -85 -75 -146 -168 -66
-100 -82 -118 -131 -144 -140 -76 -345 -263 -478 -435 -51 -66 -95 -120 -97
-120 -1 0 -3 250 -3 555 l0 554 45 20 c100 44 125 171 50 258 l-35 41 0 124 0
123 -198 44 c-279 63 -262 57 -262 89 0 34 42 124 76 165 14 17 37 56 50 86
14 31 44 76 68 101 24 25 49 56 56 70 28 54 66 90 110 105 40 13 100 56 100
71 0 10 -63 -8 -121 -35 -78 -37 -213 -152 -246 -210 -15 -25 -47 -72 -70
-105 -24 -32 -43 -66 -43 -75 0 -10 -13 -30 -29 -45 -18 -18 -34 -47 -41 -77
-9 -35 -17 -49 -29 -49 -10 0 -134 28 -277 61 -239 57 -271 62 -424 69 -91 5
-226 9 -301 9 -114 1 -138 4 -143 16 -8 22 9 172 33 288 24 115 52 188 112
293 58 101 210 256 309 315 40 23 60 46 60 67 0 9 -12 3 -34 -16 -19 -16 -81
-56 -138 -88 -66 -38 -121 -78 -153 -111 -27 -29 -52 -53 -56 -53 -12 0 52
180 98 280 83 177 116 224 201 286 42 31 95 74 117 94 52 49 186 139 300 200
70 38 107 51 165 59 100 14 144 27 172 52 l23 20 -45 -5 c-54 -7 -196 -33
-227 -42 l-23 -6 26 58 c43 99 133 266 168 315 20 27 96 93 189 162 85 65 175
139 200 166 53 56 99 145 187 356 34 83 88 204 120 271 55 114 63 125 154 211
61 57 120 103 165 127 122 64 284 177 346 241 44 46 63 59 71 51 7 -6 174
-222 373 -481z m5737 -302 c-1 -1 -112 8 -247 20 l-246 21 -7 89 c-3 50 -6
153 -6 230 l0 139 254 -248 c139 -137 253 -250 252 -251z m1992 446 c86 -52
182 -131 259 -213 l61 -64 89 -6 c130 -10 241 -31 315 -60 58 -23 78 -26 197
-26 269 0 517 -83 704 -235 131 -106 279 -344 312 -500 8 -38 13 -70 11 -72
-1 -1 -42 17 -90 42 -99 51 -126 56 -126 22 0 -17 9 -25 42 -35 66 -21 245
-130 315 -193 36 -31 108 -81 160 -110 99 -56 105 -62 183 -186 23 -36 63 -81
96 -107 47 -36 69 -65 116 -148 50 -90 90 -199 77 -212 -7 -7 -486 -58 -506
-54 -15 3 -17 13 -15 78 5 116 -27 179 -178 345 -45 50 -96 113 -114 140 -40
62 -86 176 -86 214 0 51 -29 65 -130 62 l-89 -2 -7 48 c-5 37 -2 62 15 111
l22 63 -20 45 c-12 25 -24 76 -27 112 -4 37 -13 76 -20 87 -8 11 -14 31 -14
46 0 15 -8 37 -19 50 -17 21 -21 22 -36 9 -31 -26 -34 -52 -11 -85 15 -22 21
-43 19 -79 -1 -57 -17 -72 -51 -50 -27 17 -27 17 -36 -12 -5 -18 -1 -24 25
-33 18 -6 42 -11 55 -11 32 0 49 -63 35 -128 -6 -28 -6 -73 -1 -112 4 -36 5
-68 1 -72 -3 -3 -56 -9 -117 -13 l-111 -7 3 58 c1 33 3 62 3 65 1 4 13 9 29
12 32 7 85 54 78 71 -39 89 -56 137 -56 166 0 19 -5 51 -10 71 -12 42 -60 92
-82 84 -23 -9 -68 -98 -68 -136 0 -35 -36 -152 -56 -182 -23 -34 -6 -54 57
-68 l59 -13 0 -67 0 -66 -67 -6 c-38 -3 -89 -9 -114 -13 -44 -6 -47 -5 -56 22
-7 20 -7 37 0 54 6 14 11 70 12 125 0 100 0 100 25 101 43 1 49 3 60 24 15 28
4 43 -21 29 -40 -21 -108 92 -69 116 13 8 13 66 0 100 -13 35 -48 30 -72 -11
-14 -25 -16 -37 -8 -58 5 -15 7 -64 3 -119 -3 -50 -6 -117 -5 -147 1 -30 3
-98 5 -150 l2 -95 -47 -8 c-48 -9 -58 -21 -58 -78 0 -82 -104 -302 -206 -440
-132 -177 -174 -294 -144 -398 5 -19 9 -36 7 -37 -3 -3 -376 -44 -399 -44 -17
0 -18 25 -18 389 l0 390 41 96 c23 52 40 97 38 99 -2 1 -214 46 -471 100
l-468 98 -342 -67 c-189 -36 -352 -69 -363 -72 -11 -3 101 117 250 266 148
149 277 271 286 271 9 0 32 6 50 14 19 8 72 17 119 21 47 4 119 15 162 26 104
26 255 26 312 0 131 -60 196 -82 217 -76 22 7 21 8 -12 26 -19 10 -40 18 -47
19 -7 0 -52 19 -100 43 l-87 42 -259 -1 -259 -2 279 279 c265 265 281 279 316
279 68 0 151 -29 220 -76 37 -25 73 -44 79 -42 20 7 -134 123 -203 153 l-67
30 62 63 c34 34 67 62 74 62 8 0 44 -18 81 -41z m-5485 -248 c136 -123 246
-224 245 -226 -2 -1 -122 6 -268 16 -146 10 -269 18 -275 18 -7 1 -8 76 -4
218 4 120 7 222 8 227 1 11 -9 20 294 -253z m2947 -896 l0 -695 -240 0 -240 0
0 679 0 678 228 15 c125 8 233 16 240 16 9 2 12 -143 12 -693z m528 646 c1 -1
2 -302 2 -670 l0 -669 -44 5 c-47 6 -129 -16 -182 -48 -43 -26 -52 -24 -56 14
l-3 32 -97 -2 -98 -2 0 692 0 692 238 -21 c130 -12 238 -22 240 -23z m-3828
-676 l0 -684 -255 -3 -255 -3 0 658 c0 361 3 657 8 658 4 0 111 13 237 28 127
16 238 29 248 30 16 1 17 -38 17 -684z m275 670 c116 -8 227 -15 248 -15 l37
0 0 -670 0 -670 -260 0 -260 0 0 685 c0 541 3 685 13 685 6 0 107 -7 222 -15z
m3625 1 c0 -3 -4 -8 -10 -11 -5 -3 -10 -1 -10 4 0 6 5 11 10 11 6 0 10 -2 10
-4z m-3090 -376 l0 -110 140 0 140 0 0 110 0 110 105 0 105 0 0 -110 0 -110
130 0 130 0 0 110 0 110 100 0 100 0 0 -110 0 -110 145 0 145 0 0 110 0 110
95 0 95 0 0 -110 0 -110 155 0 155 0 0 110 0 110 110 0 110 0 0 -534 0 -533
-76 -5 -76 -5 -44 47 c-49 52 -134 102 -205 120 l-47 12 -4 161 c-2 89 -2 167
0 174 2 8 32 13 80 15 l77 3 3 37 c3 33 1 37 -28 43 -17 4 -52 4 -79 0 l-48
-6 -6 38 c-4 21 -7 58 -7 83 0 64 -29 89 -63 55 -11 -10 -14 -32 -11 -81 4
-85 -3 -95 -66 -87 -72 8 -100 -1 -100 -35 0 -42 17 -52 91 -52 52 0 68 -4 73
-16 3 -9 9 -86 12 -173 l5 -156 -61 -12 c-85 -16 -146 -49 -214 -114 l-58 -57
-654 -4 -654 -3 0 543 0 542 100 0 100 0 0 -110z m4721 -485 c221 -47 404 -87
407 -89 7 -8 -41 -118 -54 -123 -11 -4 -671 111 -713 124 -20 7 -28 22 -47 91
-17 63 -19 82 -9 82 7 0 194 -38 416 -85z m2052 -92 c4 -53 5 -98 3 -100 -1
-2 -30 -5 -62 -8 -32 -2 -108 -8 -169 -14 -60 -5 -182 -15 -270 -21 -88 -6
-195 -14 -237 -17 l-78 -6 2 87 c1 47 4 90 7 94 7 10 155 28 356 42 77 6 172
15 210 20 63 9 91 12 201 18 l31 2 6 -97z m51 10 c14 -90 96 -213 242 -368 96
-102 143 -233 114 -319 -12 -38 -14 -38 -118 -50 -38 -4 -43 -2 -36 12 25 61
34 99 29 126 -17 82 -50 160 -96 223 -66 89 -124 213 -143 306 -18 87 -20 107
-7 107 5 0 11 -17 15 -37z m-2541 -1033 c-5 -4 -168 -23 -363 -44 -195 -20
-370 -40 -387 -43 l-33 -5 0 465 0 465 93 16 c50 9 227 40 392 70 l300 52 3
-485 c1 -267 -1 -488 -5 -491z m440 910 c185 -33 340 -60 342 -60 3 0 5 -173
5 -385 0 -212 -2 -385 -5 -385 -14 0 -666 -71 -692 -75 l-33 -6 0 491 0 490
23 -5 c12 -3 174 -32 360 -65z m1203 3 c-17 -167 -40 -232 -176 -482 -29 -53
-40 -86 -40 -116 0 -53 25 -103 61 -124 16 -9 29 -19 29 -22 0 -7 -46 -15
-145 -25 -70 -6 -71 -6 -83 20 -35 77 -1 176 127 367 111 166 186 310 204 394
16 77 31 69 23 -12z m-2506 -13 l30 -59 0 -246 c0 -240 0 -245 -20 -245 -40 0
-78 30 -119 92 -79 123 -119 166 -172 186 -28 10 -50 22 -50 26 0 11 281 306
292 306 5 0 22 -27 39 -60z m3389 -62 c16 -55 64 -141 109 -196 42 -53 91
-173 92 -225 0 -56 -22 -100 -62 -121 -34 -19 -36 -19 -74 0 -36 18 -39 22
-40 61 -1 51 -8 61 -30 42 -27 -22 -36 -59 -23 -91 6 -16 9 -32 5 -35 -5 -5
-754 -92 -803 -93 -8 0 -5 15 8 45 14 31 18 56 14 75 -7 34 -51 68 -78 62 -25
-5 -17 -36 11 -40 17 -3 22 -10 22 -33 0 -32 -16 -69 -34 -81 -19 -13 -66 -9
-102 8 -39 19 -74 70 -74 108 0 15 27 74 60 130 62 108 112 225 134 311 l13
50 149 12 c82 6 253 19 379 28 127 9 237 17 245 19 54 13 67 7 79 -36z m-5188
-111 c103 -50 188 -161 205 -267 7 -42 6 -43 -17 -36 -219 64 -480 65 -696 0
-20 -5 -23 -3 -23 19 0 75 75 197 154 252 76 52 125 65 232 62 74 -2 100 -8
145 -30z m1069 -252 l0 -125 -130 0 -130 0 0 120 0 119 63 4 c34 2 92 4 130 5
l67 2 0 -125z m350 107 c51 -9 87 -27 110 -52 22 -26 201 -183 230 -203 13 -9
35 -17 47 -17 l23 0 0 -204 0 -203 -77 -7 c-174 -15 -153 -2 -234 -142 -61
-107 -73 -123 -88 -114 -22 11 -47 48 -82 120 -33 69 -97 133 -171 171 l-58
29 0 289 0 289 88 31 c89 31 108 32 212 13z m-1050 -113 c0 -121 0 -121 -22
-115 -13 3 -37 6 -54 6 l-31 0 -5 68 c-3 37 -14 89 -26 115 l-21 47 80 0 79 0
0 -121z m60 1 c0 -73 -4 -120 -10 -120 -6 0 -10 47 -10 120 0 73 4 120 10 120
6 0 10 -47 10 -120z m260 0 l0 -120 -105 0 -105 0 0 120 0 120 105 0 105 0 0
-120z m70 0 c0 -73 -4 -120 -10 -120 -6 0 -10 47 -10 120 0 73 4 120 10 120 6
0 10 -47 10 -120z m-2420 -5 l0 -115 -110 0 -110 0 0 110 0 109 58 4 c31 2 81
4 110 5 l52 2 0 -115z m57 -57 c-2 -35 -3 -9 -3 57 0 66 1 94 3 63 2 -32 2
-86 0 -120z m263 57 l0 -115 -105 0 -105 0 0 115 0 115 105 0 105 0 0 -115z
m57 -57 c-2 -35 -3 -9 -3 57 0 66 1 94 3 63 2 -32 2 -86 0 -120z m313 57 l0
-115 -130 0 -130 0 0 115 0 115 130 0 130 0 0 -115z m70 0 c0 -70 -4 -115 -10
-115 -6 0 -10 45 -10 115 0 70 4 115 10 115 6 0 10 -45 10 -115z m340 63 c-10
-29 -21 -81 -25 -115 l-7 -63 -129 0 -129 0 0 115 0 115 154 0 154 0 -18 -52z
m-2420 -68 c0 -67 -4 -110 -10 -110 -6 0 -10 43 -10 110 0 67 4 110 10 110 6
0 10 -43 10 -110z m310 0 l0 -110 -130 0 -130 0 0 110 0 110 130 0 130 0 0
-110z m70 0 c0 -67 -4 -110 -10 -110 -6 0 -10 43 -10 110 0 67 4 110 10 110 6
0 10 -43 10 -110z m260 0 l0 -110 -110 0 -110 0 0 110 0 110 110 0 110 0 0
-110z m57 -57 c-2 -32 -3 -6 -3 57 0 63 1 89 3 58 2 -32 2 -84 0 -115z m283
57 l0 -110 -115 0 -115 0 0 110 0 110 115 0 115 0 0 -110z m70 0 c0 -67 -4
-110 -10 -110 -6 0 -10 43 -10 110 0 67 4 110 10 110 6 0 10 -43 10 -110z
m-2160 -5 l0 -105 -130 0 -130 0 0 99 0 100 33 4 c17 2 76 5 130 5 l97 2 0
-105z m57 -52 c-2 -32 -3 -8 -3 52 0 61 1 87 3 58 2 -29 2 -78 0 -110z m293
52 l0 -105 -120 0 -120 0 0 105 0 105 120 0 120 0 0 -105z m57 -52 c-2 -32 -3
-8 -3 52 0 61 1 87 3 58 2 -29 2 -78 0 -110z m293 52 l0 -105 -120 0 -120 0 0
105 0 105 120 0 120 0 0 -105z m60 0 c0 -63 -4 -105 -10 -105 -6 0 -10 42 -10
105 0 63 4 105 10 105 6 0 10 -42 10 -105z m280 0 l0 -105 -115 0 -115 0 0
105 0 105 115 0 115 0 0 -105z m3127 -55 c48 -10 100 -23 116 -29 l27 -11 0
-304 0 -305 -56 19 c-196 68 -452 68 -648 0 l-56 -19 2 307 3 307 80 23 c158
45 355 49 532 12z m7018 -50 c38 -38 64 -70 58 -70 -14 0 -5599 -648 -5630
-653 -22 -4 -22 -3 9 52 75 131 85 146 109 153 36 12 3536 388 3604 388 32 0
72 5 89 10 24 8 1575 183 1671 189 13 1 46 -25 90 -69z m-6257 -50 l232 0 0
-742 0 -743 -58 120 c-112 231 -224 387 -389 546 -99 95 -224 186 -315 230
-47 23 -48 24 -48 71 l0 48 128 0 127 0 83 118 83 117 -210 3 -211 2 0 122 0
121 173 -6 c94 -4 277 -7 405 -7z m-1428 -115 l0 -115 -280 0 c-154 0 -280 -3
-280 -6 0 -3 36 -57 81 -120 l81 -114 199 0 199 0 0 -49 0 -50 -76 -42 c-81
-44 -213 -140 -253 -183 -20 -21 -34 -26 -73 -26 l-48 0 0 -48 c0 -41 -6 -54
-42 -97 -41 -50 -172 -243 -180 -266 -3 -8 -15 -5 -38 10 -42 25 -127 28 -169
7 -69 -36 -120 -132 -105 -199 14 -68 65 -128 127 -150 16 -5 26 -15 23 -22
-2 -7 -10 -31 -17 -54 -12 -40 -13 -41 -56 -41 l-43 0 0 -160 0 -160 -110 0
-110 0 0 600 0 600 -290 0 -290 0 0 -600 0 -600 -105 0 -105 0 0 160 0 160
-155 0 -155 0 0 -160 0 -160 -130 0 -130 0 0 600 0 600 -285 0 -285 0 0 -600
0 -600 -85 0 -85 0 0 160 0 160 -150 0 -150 0 0 -160 0 -160 -95 0 -95 0 0
1000 0 1000 1880 0 1880 0 0 -115z m6956 -75 c252 -65 444 -236 499 -445 30
-115 42 -103 -182 -191 -109 -43 -204 -82 -210 -87 -9 -7 -13 -43 -13 -119 0
-103 -2 -112 -25 -140 -74 -88 -42 -219 65 -262 l40 -16 0 -59 0 -60 -28 12
c-16 7 -220 98 -455 202 l-427 190 0 460 0 461 303 35 c371 44 338 43 433 19z
m-1406 -187 c231 -76 415 -287 459 -527 11 -62 15 -166 6 -166 -3 0 -39 14
-80 32 l-75 32 0 41 c0 198 -171 408 -371 454 -179 42 -384 -46 -489 -208 -52
-82 -73 -155 -74 -261 -1 -137 37 -240 126 -336 l38 -42 -206 -101 c-113 -55
-208 -101 -210 -101 -2 0 -4 125 -4 278 l0 279 -92 31 c-51 18 -99 32 -105 32
-9 0 -13 -23 -13 -79 l0 -80 -45 15 -44 16 -3 85 -3 85 -90 34 c-49 19 -91 34
-92 34 -2 0 -3 -39 -3 -86 0 -75 -2 -85 -16 -80 -9 3 -27 9 -40 12 -23 6 -24
10 -24 89 l0 83 -82 28 c-46 14 -87 30 -93 34 -8 7 -138 -13 -232 -35 -22 -5
-23 -10 -23 -109 0 -117 8 -107 -92 -121 l-48 -7 0 101 c0 58 -4 101 -10 101
-8 0 -65 -13 -207 -45 -22 -5 -23 -10 -23 -109 l0 -105 -57 -11 c-32 -6 -66
-14 -75 -16 -16 -5 -18 5 -18 101 l0 107 -25 -6 c-14 -3 -36 -9 -50 -12 l-25
-6 0 154 0 154 1163 136 c766 90 1181 134 1217 131 30 -3 89 -16 130 -30z
m-3782 -48 c38 -34 94 -118 139 -207 13 -26 32 -52 43 -58 19 -10 20 -22 20
-272 l0 -261 -29 39 c-31 44 -65 70 -105 80 -15 3 -42 24 -61 46 -65 77 -65
77 -65 387 0 180 4 281 10 281 5 0 27 -16 48 -35z m-1275 -146 c126 -111 295
-457 401 -819 43 -150 76 -301 76 -353 0 -37 -1 -38 -27 -33 -156 32 -714 40
-935 14 l-118 -14 0 29 c0 123 123 538 231 782 106 238 245 433 310 435 9 0
37 -18 62 -41z m-337 -14 c-316 -190 -578 -598 -740 -1154 l-42 -144 -129 -43
c-71 -24 -130 -42 -132 -40 -2 2 10 57 26 123 141 559 447 1003 827 1200 70
37 213 92 238 93 6 0 -16 -16 -48 -35z m501 -11 c95 -45 216 -137 298 -227
139 -150 289 -410 390 -672 42 -109 126 -376 120 -383 -1 -1 -67 13 -146 32
-79 19 -179 40 -221 47 l-78 13 0 32 c0 51 -38 235 -75 363 -99 345 -247 663
-372 802 -35 38 -36 41 -13 34 14 -4 57 -22 97 -41z m4856 26 c160 -49 280
-200 294 -367 l6 -68 -336 -164 c-380 -186 -345 -179 -417 -82 -100 133 -115
314 -41 466 91 186 298 275 494 215z m-5256 -57 c-165 -215 -348 -688 -406
-1052 l-17 -105 -119 -22 c-66 -12 -157 -31 -202 -41 l-83 -20 6 26 c4 14 32
105 64 201 143 437 351 774 588 953 50 38 188 116 205 117 5 0 -12 -26 -36
-57z m591 6 c358 -166 644 -525 815 -1025 42 -122 94 -321 86 -328 -2 -1 -54
15 -115 36 l-110 39 -42 144 c-97 337 -229 622 -387 835 -79 106 -229 254
-315 310 -74 48 -52 45 68 -11z m8107 5 c462 -9 842 -18 844 -20 5 -5 -16
-135 -24 -142 -3 -3 -386 4 -851 15 -721 18 -852 19 -885 8 l-39 -14 0 84 0
85 58 0 c31 0 435 -7 897 -16z m-995 -82 l0 -87 -421 -165 c-232 -91 -426
-167 -431 -168 -5 -2 -8 35 -6 84 l3 89 420 167 c231 92 423 167 428 168 4 0
7 -39 7 -88z m-5407 -1152 c12 0 87 7 167 15 80 8 157 15 173 15 l27 0 0 -334
0 -333 -31 -7 c-17 -3 -44 -6 -60 -6 -16 0 -29 -3 -29 -8 0 -4 27 -54 60 -110
l60 -104 0 -239 0 -239 -450 0 -450 0 0 1234 0 1233 158 18 c86 10 200 23 252
29 l95 11 3 -587 2 -588 23 0z m6527 1034 c377 -9 686 -18 688 -19 2 -1 -7
-55 -19 -120 l-22 -117 -201 6 c-111 3 -480 8 -821 11 -377 4 -633 10 -652 16
-68 22 -101 127 -59 190 35 54 65 60 241 54 88 -3 468 -12 845 -21z m-5212
-776 l-3 -793 -420 -47 c-231 -26 -432 -47 -447 -47 l-28 -1 0 749 0 748 38 7
c20 3 47 9 60 12 22 6 22 5 22 -93 0 -55 2 -102 5 -105 5 -4 126 17 213 37 21
5 22 10 22 109 l0 104 69 16 c39 9 72 16 75 16 4 0 6 -45 6 -100 0 -73 3 -100
13 -100 6 0 48 7 92 15 140 26 125 10 125 129 l0 105 53 10 c28 5 61 12 72 14
11 3 23 5 28 6 4 0 6 -356 5 -791z m182 662 l0 -85 83 -23 c45 -12 85 -22 90
-22 4 0 7 36 7 79 l0 80 45 -15 44 -16 3 -86 3 -87 75 -27 c113 -40 110 -42
110 51 l0 80 53 -18 52 -18 3 -722 c2 -685 1 -722 -15 -717 -10 2 -168 24
-350 48 l-333 43 0 791 0 792 65 -21 65 -21 0 -86z m3879 45 c-13 -45 3 -104
38 -145 14 -17 23 -33 21 -35 -3 -3 -194 -79 -426 -170 -310 -122 -428 -164
-446 -159 -84 21 -111 140 -46 199 17 15 830 341 857 344 8 1 9 -8 2 -34z
m-1514 -420 c303 -135 537 -244 520 -241 -46 8 -296 35 -435 46 -213 18 -718
24 -944 11 -240 -13 -467 -35 -646 -61 -69 -10 -126 -17 -128 -16 -1 2 233
118 520 259 323 158 531 255 543 252 11 -3 268 -115 570 -250z m-13910 185
c578 -11 1128 -23 1223 -26 l172 -6 0 -95 c0 -52 -3 -92 -7 -90 -5 3 -615 11
-1356 18 -920 9 -1353 16 -1362 23 -7 6 -22 55 -33 109 l-20 98 167 -6 c91 -3
639 -14 1216 -25z m17141 4 l71 -5 -10 -42 c-5 -23 -11 -43 -11 -44 -1 -1
-209 4 -461 12 -253 8 -502 15 -552 15 l-93 0 0 -355 0 -355 -260 0 -260 0 0
396 0 396 753 -6 c413 -4 784 -9 823 -12z m-1626 -392 l0 -397 -90 -83 -90
-83 0 -95 0 -94 -37 -35 c-21 -19 -41 -35 -45 -35 -5 0 -8 36 -8 80 0 44 -2
80 -5 80 -3 0 -53 -41 -110 -92 l-105 -92 0 -96 0 -96 -50 -49 -50 -49 0 87
c0 48 -4 87 -9 87 -5 0 -59 -43 -120 -96 l-110 -97 -4 -106 c-1 -58 -4 218 -5
614 l-2 720 413 161 c226 89 415 162 420 163 4 1 7 -178 7 -397z m-13520 225
l535 -122 3 -96 3 -96 -393 94 c-216 51 -462 109 -545 129 l-153 36 0 89 c0
49 3 89 8 89 4 -1 248 -56 542 -123z m14453 47 l75 -7 35 -91 c29 -73 39 -90
54 -88 10 2 20 6 22 8 3 2 -10 41 -27 86 -17 45 -29 84 -27 86 2 2 92 0 199
-4 l195 -9 -43 -95 -43 -94 -84 3 c-178 6 -345 -58 -475 -181 -82 -78 -134
-151 -170 -236 l-23 -57 0 320 0 320 22 -26 c12 -14 62 -76 110 -138 73 -92
91 -110 103 -100 23 19 34 3 -159 247 l-49 62 105 0 c57 0 138 -3 180 -6z
m674 -20 l60 -7 -29 -121 c-16 -66 -30 -127 -33 -134 -3 -9 -15 -7 -47 9 -24
12 -64 29 -89 38 l-47 16 46 103 c32 70 51 102 62 102 10 0 44 -3 77 -6z
m-16952 -115 c1122 -10 1223 -12 1254 -28 93 -47 91 -193 -2 -237 -29 -14
-172 -14 -1356 -2 l-1325 13 -33 130 c-18 72 -33 133 -33 137 0 3 62 4 138 2
75 -2 686 -9 1357 -15z m1898 -165 c241 -57 451 -111 467 -119 51 -26 73 -64
67 -118 -5 -54 -34 -92 -77 -102 -18 -4 -208 33 -521 100 -272 58 -502 108
-512 111 -18 6 -18 7 2 28 26 28 51 88 51 123 0 15 -9 46 -19 69 l-19 41 62
-14 c33 -8 258 -61 499 -119z m11937 -13 c136 -12 421 -46 540 -64 l75 -12 3
-562 c1 -374 -1 -563 -8 -563 -5 0 -53 -35 -105 -77 l-94 -78 -1 -111 c0 -109
0 -111 -30 -139 l-30 -29 0 92 c0 51 -4 92 -9 92 -5 0 -52 -35 -103 -78 l-93
-78 -3 -82 c-3 -79 -4 -82 -27 -82 -41 0 -55 11 -55 41 0 36 -6 36 -41 3 l-28
-27 -193 14 c-250 18 -909 19 -1118 1 -154 -13 -440 -47 -492 -58 l-28 -6 0
318 0 318 71 104 c39 57 69 105 68 107 -2 1 -33 7 -69 11 l-65 9 -3 422 c-2
395 -1 422 15 427 81 24 544 79 803 96 172 11 855 5 1020 -9z m-13747 -141
c614 -6 1122 -8 1127 -5 7 4 10 -182 10 -544 l0 -551 -235 0 -235 0 0 480 0
480 -630 0 -630 0 0 -480 0 -480 -269 0 -268 0 -57 147 c-80 204 -197 553
-262 776 -30 103 -54 188 -54 190 0 1 87 1 192 0 106 -2 696 -8 1311 -13z
m1705 -127 l502 -107 0 -703 c0 -620 -2 -702 -15 -697 -12 5 -15 29 -15 133
l0 126 -119 68 c-65 37 -121 67 -125 67 -3 0 -6 -52 -6 -115 l0 -115 -62 38
-63 39 -5 122 -5 122 -125 74 -125 73 -3 -654 -2 -654 -175 0 -175 0 0 1145
c0 630 3 1145 8 1145 4 1 233 -48 510 -107z m5948 10 c-3 -10 -10 -71 -17
-135 l-12 -118 -96 -1 c-53 0 -130 -4 -172 -7 l-77 -7 -61 123 c-34 69 -61
126 -59 128 9 8 276 29 411 32 80 2 88 0 83 -15z m447 -9 c76 -8 186 -24 244
-34 113 -21 323 -70 323 -75 0 -9 -92 -221 -99 -228 -4 -4 -48 1 -97 12 -198
44 -518 81 -701 81 l-93 0 0 26 c0 32 20 214 26 233 5 16 164 10 397 -15z
m-936 -138 l62 -125 -47 -6 c-219 -29 -473 -84 -650 -140 -46 -15 -86 -25 -88
-23 -10 11 -102 214 -98 219 4 7 250 89 354 118 82 22 339 75 390 80 10 1 37
-42 77 -123z m-7367 -106 c39 -96 68 -179 66 -185 -2 -5 -25 -18 -51 -27 l-47
-18 -154 148 -153 147 0 58 -1 58 135 -3 136 -3 69 -175z m478 168 c-3 -7 -24
-90 -48 -184 l-43 -171 -41 9 c-23 5 -82 8 -133 6 l-91 -4 -58 146 c-32 80
-64 160 -71 178 l-13 32 251 0 c197 0 250 -3 247 -12z m342 -56 l0 -68 -116
-145 c-64 -79 -119 -148 -124 -152 -9 -11 -140 50 -140 64 0 9 52 220 81 332
l10 37 144 0 145 0 0 -68z m8245 -38 c55 -19 105 -38 112 -42 9 -6 5 -36 -19
-122 -17 -63 -32 -116 -32 -117 -1 -1 -64 18 -140 42 -76 25 -144 45 -152 45
-8 0 -14 2 -14 4 0 6 81 198 92 219 11 21 10 21 153 -29z m6986 36 c53 -29 61
-116 13 -161 -26 -24 -26 -24 -290 -27 l-264 -3 0 101 0 100 261 0 c159 0 268
-4 280 -10z m-1324 -1780 c-403 -404 -1263 -1267 -1910 -1918 l-1177 -1183 0
663 0 663 100 100 99 99 3 -138 3 -138 123 117 122 117 0 143 0 144 83 70 82
71 3 -130 c1 -72 6 -130 10 -130 4 0 57 51 119 112 l113 113 0 135 0 135 70
63 70 63 0 -132 0 -132 109 104 109 104 1 131 1 131 59 52 c33 28 62 51 65 51
3 0 6 -55 6 -122 l0 -123 95 95 95 95 0 121 0 122 64 56 c35 31 67 56 70 56 3
0 6 -49 6 -110 0 -60 3 -110 7 -110 4 0 52 44 105 97 l98 98 1 120 0 120 57
48 57 49 3 -113 3 -113 89 89 90 90 0 111 0 112 63 55 62 56 3 -112 3 -111 89
89 90 90 1 110 0 110 52 42 52 42 3 -107 3 -106 79 79 80 80 0 110 0 110 55
43 55 43 0 -103 0 -103 80 80 80 80 0 101 0 101 70 62 70 63 0 -98 0 -97 93
89 92 89 5 99 5 99 63 55 62 55 0 -82 c0 -44 3 -81 8 -81 4 0 47 34 95 75 l87
76 0 97 0 96 63 57 62 56 3 -511 2 -511 -733 -735z m-8188 1589 c23 -50 40
-93 38 -95 -2 -2 -677 -3 -1499 -2 l-1495 3 40 93 40 92 1417 0 1417 0 42 -91z
m-6619 -170 c0 -3 -26 -27 -58 -52 -68 -53 -128 -128 -171 -212 l-30 -60 -1
288 0 288 130 -123 c72 -67 130 -125 130 -129z m900 -56 l0 -268 -20 44 c-29
63 -103 163 -150 204 l-41 35 102 126 c56 69 103 126 105 126 2 0 4 -120 4
-267z m7000 -288 l0 -545 -165 0 -165 0 0 540 0 539 58 4 c31 2 105 4 165 5
l107 2 0 -545z m375 535 c180 -16 464 -61 548 -86 16 -5 17 -40 17 -546 l0
-541 -32 6 c-297 52 -467 72 -710 83 l-148 7 0 544 0 543 108 0 c59 0 157 -5
217 -10z m-755 -548 l0 -538 -142 -18 c-172 -20 -401 -66 -537 -106 -55 -17
-102 -30 -105 -30 -3 0 -5 238 -6 528 l0 529 97 31 c190 61 524 131 671 141
l22 1 0 -538z m8590 -117 l0 -605 -260 0 -260 0 0 600 0 600 258 3 c141 1 258
3 260 5 1 1 2 -270 2 -603z m-7000 497 l85 -29 3 -541 c1 -298 0 -542 -2 -542
-2 0 -32 11 -67 24 -35 13 -103 34 -151 46 l-88 23 0 543 0 542 68 -19 c37
-10 106 -32 152 -47z m-2420 -97 l0 -95 -1520 0 -1520 0 0 95 0 95 1520 0
1520 0 0 -95z m4698 -200 c-5 -4 -859 -95 -890 -95 -23 0 -33 11 -67 68 l-39
67 496 55 497 55 3 -74 c2 -40 2 -75 0 -76z m475 95 c210 -28 382 -52 384 -53
7 -8 -93 -137 -106 -137 -9 0 -166 20 -350 45 -184 25 -338 45 -343 45 -4 0
-8 34 -8 75 0 69 2 75 21 75 11 0 192 -23 402 -50z m-5173 -100 l0 -60 -1400
0 -1400 0 0 -770 0 -769 -30 17 -30 17 0 132 0 132 -90 52 -90 51 0 629 0 629
1520 0 1520 0 0 -60z m4700 -711 c0 -374 -4 -659 -9 -657 -5 2 -207 167 -449
368 l-441 365 -1 248 0 247 23 0 c12 1 198 21 412 44 215 24 407 44 428 45
l37 1 0 -661z m405 616 c182 -25 333 -45 338 -45 11 0 9 -2298 -3 -2305 -6 -4
-10 -64 -10 -148 l0 -143 -75 -74 -75 -74 0 144 0 145 -125 -125 -125 -125 0
528 0 527 76 0 c42 0 74 4 72 9 -1 5 -99 88 -215 185 l-213 176 0 685 c0 541
3 685 13 685 6 0 161 -20 342 -45z m-5105 -250 l0 -235 -106 0 c-104 0 -105 0
-102 -22 3 -22 8 -23 106 -26 l102 -3 0 -59 0 -59 -102 -3 c-95 -3 -103 -4
-103 -23 0 -19 8 -20 103 -23 l102 -3 0 -266 0 -266 -24 22 -24 23 -122 -114
-122 -113 -201 3 -202 4 -167 199 -168 199 403 2 402 3 3 230 c3 259 -5 332
-48 421 -37 76 -129 165 -207 201 -77 36 -214 44 -294 18 -116 -37 -209 -120
-262 -233 l-32 -67 -3 -270 -3 -270 -227 -163 -227 -164 -5 434 -5 434 -38 76
c-44 89 -116 161 -205 205 -52 26 -66 28 -172 28 -104 0 -120 -3 -173 -27 -71
-33 -165 -121 -201 -188 -15 -28 -33 -78 -41 -113 -7 -34 -14 -54 -14 -44 -1
16 -17 17 -186 17 l-185 0 0 235 0 235 1375 0 1375 0 0 -235z m-4731 110 l71
-40 0 -122 0 -121 113 -66 112 -65 3 114 c1 63 4 115 6 115 3 0 36 -18 75 -41
l71 -41 0 -123 0 -123 89 -56 c48 -31 93 -56 100 -56 7 0 11 35 11 115 0 63 2
115 4 115 3 0 34 -19 70 -41 l66 -41 0 -123 0 -124 106 -65 c58 -36 107 -66
110 -66 2 0 4 54 4 120 0 66 3 120 6 120 3 0 32 -15 65 -32 l59 -33 0 -132 0
-132 100 -60 c67 -40 102 -57 105 -48 3 6 6 63 7 124 l3 113 55 -33 55 -33 5
-132 5 -132 93 -60 c51 -33 95 -60 98 -60 2 0 4 58 4 130 l0 129 80 -46 80
-47 0 -131 0 -130 104 -63 c57 -34 109 -62 115 -62 7 0 11 40 11 120 0 66 2
120 5 120 2 0 38 -21 80 -46 l75 -45 0 -133 0 -132 114 -71 c63 -39 117 -68
120 -65 3 3 6 61 6 129 0 68 3 123 8 122 4 0 34 -17 67 -38 l60 -38 3 -136 3
-136 113 -70 c63 -39 119 -71 125 -71 7 0 11 45 13 129 l3 129 90 -54 90 -54
5 -142 5 -142 120 -73 c66 -40 126 -72 133 -73 9 0 12 32 12 130 0 72 2 130 4
130 3 0 43 -23 90 -51 l86 -52 0 -141 0 -142 139 -82 c77 -45 142 -82 145 -82
3 0 6 60 6 134 l0 135 133 -79 132 -78 3 299 2 299 245 0 245 0 0 -1140 c0
-1083 -1 -1140 -17 -1131 -10 6 -1051 658 -2313 1449 l-2295 1439 -3 632 c-1
379 2 631 7 629 5 -1 41 -21 80 -43z m-2245 -41 c38 -39 37 -105 -3 -145 l-30
-29 -212 2 -212 3 -38 89 c-22 49 -39 93 -39 98 0 4 114 8 254 8 l253 0 27
-26z m1706 -74 l0 -100 -241 0 -241 0 -29 29 c-40 40 -41 106 -3 145 l27 26
243 0 244 0 0 -100z m14120 -293 l0 -172 -191 -198 c-106 -109 -195 -195 -199
-190 -4 4 -28 59 -55 121 l-48 113 74 77 c115 120 413 422 416 422 2 0 3 -78
3 -173z m-15852 -453 l-3 -208 -105 194 c-57 107 -148 287 -201 400 l-97 205
202 5 201 5 3 -197 c1 -108 1 -290 0 -404z m1732 141 l0 -455 -235 0 -235 0 0
455 0 455 235 0 235 0 0 -455z m2890 265 l0 -60 -185 0 -185 0 0 60 0 60 185
0 185 0 0 -60z m3915 20 c239 -18 601 -71 615 -90 3 -4 28 -10 56 -13 57 -6
304 -84 303 -95 0 -4 -50 -45 -111 -92 l-111 -86 -146 37 c-352 90 -664 124
-1066 116 -269 -5 -382 -15 -595 -52 -99 -17 -345 -76 -393 -94 -16 -6 -30
-11 -33 -11 -2 0 -4 52 -4 115 l0 114 73 22 c194 58 402 99 629 123 150 17
592 20 783 6z m2787 -457 c310 -256 603 -499 651 -540 l89 -73 -230 0 -229 0
-389 317 c-214 174 -512 417 -662 540 l-273 223 240 0 241 0 562 -467z m-741
-195 c415 -348 772 -648 794 -665 l40 -33 -146 0 -146 0 -648 561 c-543 471
-651 560 -665 551 -9 -5 -329 -258 -710 -561 l-693 -551 -145 0 c-80 0 -142 3
-138 8 14 14 1691 1321 1696 1321 3 1 345 -284 761 -631z m3434 581 c104 -6
205 -14 224 -18 l34 -7 -51 -43 -52 -43 0 -64 0 -64 -40 0 c-29 0 -40 4 -40
15 0 18 -12 19 -27 4 -8 -8 -65 -8 -212 0 -386 21 -790 11 -1151 -29 -96 -11
-181 -20 -187 -20 -10 0 -13 26 -13 99 0 94 1 99 23 104 72 19 396 52 677 71
122 8 647 5 815 -5z m462 -43 c2 -1 -15 -20 -37 -41 l-40 -39 0 47 0 48 38 -7
c20 -4 38 -7 39 -8z m-9857 -546 l0 -530 -37 23 -38 24 -3 134 -3 134 -127 77
-127 76 -3 -125 c-2 -92 -6 -123 -15 -120 -9 3 -13 103 -15 420 l-2 417 185 0
185 0 0 -530z m-1180 454 c0 -2 -9 0 -20 6 -11 6 -20 13 -20 16 0 2 9 0 20 -6
11 -6 20 -13 20 -16z m13245 -101 c-144 -275 -219 -402 -240 -407 -62 -15
-210 -27 -275 -21 -85 8 -240 36 -348 64 -88 23 -89 13 -5 -45 114 -78 265
-117 455 -118 65 -1 118 -2 118 -4 0 -6 -227 -365 -246 -389 l-21 -27 -29 21
c-83 59 -268 135 -385 159 -106 21 -363 14 -578 -15 -80 -12 -146 -19 -148
-18 -1 2 171 181 382 397 l384 395 73 8 c99 10 218 0 346 -29 125 -28 123 -28
97 -8 -70 54 -234 115 -350 129 -46 6 -53 10 -44 21 9 12 88 14 446 14 l435 0
-67 -127z m-8047 13 c172 -23 334 -53 474 -88 l126 -31 -601 -468 -602 -469
-235 0 -236 0 -257 311 -257 310 0 149 0 149 68 20 c194 57 405 100 597 120
55 6 116 13 135 15 89 10 681 -3 788 -18z m1804 -528 l604 -523 -117 -3 -118
-3 -443 367 c-244 202 -466 387 -494 410 l-50 43 -482 -410 -482 -409 -186 2
-185 3 663 527 c365 290 668 526 675 524 6 -3 283 -240 615 -528z m3516 475
l33 -8 -61 -53 -60 -53 0 -66 0 -65 -67 6 c-38 3 -241 9 -453 12 -357 6 -534
1 -782 -23 l-68 -6 0 105 0 104 88 12 c96 13 387 40 497 46 116 6 838 -3 873
-11z m1417 -116 c25 -60 45 -113 43 -118 -4 -13 -428 -449 -436 -449 -4 0 -34
52 -65 117 l-59 116 228 228 c126 126 232 225 236 221 4 -4 28 -56 53 -115z
m-1205 75 c0 -19 -12 -40 -40 -67 l-40 -39 0 67 0 67 40 0 c37 0 40 -2 40 -28z
m-3856 -611 l476 -395 0 -398 0 -398 -170 0 -170 0 0 -135 0 -135 -120 0 -120
0 0 135 0 135 -185 0 -185 0 0 -135 0 -135 -120 0 -120 0 0 135 0 135 -175 0
-175 0 0 -135 0 -135 -135 0 -135 0 0 135 0 135 -45 0 -45 0 0 403 0 402 463
393 c254 216 467 391 474 390 6 -2 225 -180 487 -397z m3310 371 l69 -7 -86
-74 -87 -73 0 -57 0 -56 -312 3 c-278 3 -584 -8 -675 -24 l-33 -6 0 136 c0
127 1 136 19 136 10 0 65 5 122 11 218 23 788 29 983 11z m246 -40 c0 -20 -15
-42 -55 -82 l-55 -54 0 82 0 82 55 0 c53 0 55 -1 55 -28z m-6631 -362 l261
-315 -155 -3 c-84 -1 -225 -1 -312 0 l-159 3 48 310 c26 171 47 314 47 319 1
12 -28 46 270 -314z m-5195 123 c-31 -65 -58 -124 -61 -130 -4 -10 -188 -13
-872 -13 l-867 0 -74 123 c-40 67 -75 125 -77 130 -2 4 448 7 1001 7 l1005 0
-55 -117z m643 -277 c-8 -11 -40 -65 -72 -118 -31 -54 -59 -98 -62 -98 -9 0
-509 321 -516 333 -6 8 12 57 48 134 l57 121 279 -175 c269 -169 279 -177 266
-197z m12196 228 l58 -117 -43 -46 c-23 -25 -130 -135 -238 -244 l-195 -197
-57 112 c-31 62 -57 120 -57 128 -1 13 456 480 469 480 3 0 31 -52 63 -116z
m-8614 -116 l-1 -183 -77 -70 -77 -70 78 -3 78 -3 0 -254 c0 -140 -3 -255 -6
-255 -3 0 -62 34 -131 75 -68 41 -126 75 -128 75 -3 0 -6 -61 -7 -135 l-3
-135 -92 56 -93 55 0 142 0 142 -138 81 -137 81 -3 -134 c-1 -73 -5 -133 -8
-133 -3 0 -41 21 -85 47 l-79 48 0 377 0 378 455 0 455 0 -1 -182z m296 96
c-49 -47 -125 -117 -167 -156 l-78 -70 0 156 0 156 168 0 167 -1 -90 -85z
m6783 31 c1 -1 -32 -30 -73 -66 l-75 -64 0 -61 0 -61 -297 -7 c-164 -3 -322
-9 -350 -12 l-53 -7 0 126 c0 121 1 125 23 130 31 8 339 27 472 30 101 3 347
-3 353 -8z m172 -43 c0 -44 -4 -52 -45 -92 l-45 -44 0 92 0 92 45 0 45 0 0
-48z m-11291 -264 l241 -153 -70 -22 c-154 -49 -408 -74 -565 -54 -77 9 -189
34 -261 57 -41 13 20 -27 102 -67 118 -57 254 -90 400 -96 137 -6 225 4 422
48 l133 30 399 -253 c219 -139 395 -256 392 -260 -18 -18 -262 -40 -392 -35
-124 5 -262 30 -344 63 -14 5 -17 4 -11 -6 13 -22 206 -108 295 -131 115 -31
387 -34 527 -5 l92 18 648 -412 c356 -227 652 -416 658 -422 5 -5 -21 3 -59
17 -148 56 -228 69 -411 69 -178 0 -265 -12 -495 -69 -144 -36 -228 -45 -394
-46 -155 -1 -244 12 -360 50 -31 10 -56 15 -56 11 0 -18 211 -112 305 -137 88
-23 120 -26 260 -27 147 0 174 3 333 37 255 54 427 77 612 83 151 5 173 3 260
-18 90 -23 108 -32 338 -179 l242 -154 -67 -13 c-38 -7 -115 -24 -173 -38
-323 -77 -555 -83 -779 -18 -46 14 -85 23 -87 21 -8 -8 158 -88 241 -116 201
-66 382 -67 700 -3 110 23 230 45 268 50 l67 9 365 -231 c200 -127 364 -234
365 -238 0 -3 -44 -14 -97 -25 -76 -14 -144 -18 -298 -17 -183 0 -208 2 -290
25 -49 14 -99 29 -110 33 l-20 8 20 -17 c35 -30 197 -103 275 -124 179 -49
335 -50 557 -6 l122 25 35 -21 c34 -20 35 -20 45 0 10 17 1 26 -74 80 -47 34
-90 61 -95 61 -10 0 -526 325 -548 345 -12 10 1 35 72 138 l86 125 368 -230
c202 -127 369 -232 370 -233 2 -2 -33 -66 -77 -143 -45 -77 -81 -144 -81 -150
0 -7 856 -8 2748 -5 l2747 5 31 30 31 29 114 -10 c79 -6 142 -18 207 -39 105
-34 107 -25 9 39 -49 32 -170 80 -229 91 -12 2 101 124 359 388 l376 385 46 3
c25 1 145 13 266 27 409 45 507 43 693 -12 132 -38 131 -38 102 -14 -35 30
-153 86 -230 109 -181 55 -445 71 -645 39 -49 -8 -91 -14 -92 -13 -1 1 159
166 355 366 l356 365 210 38 c191 34 223 37 341 33 77 -3 170 -13 229 -25 125
-27 129 -26 82 5 -134 91 -371 133 -621 111 l-90 -8 120 123 c67 68 252 258
413 422 l292 300 143 7 c163 9 319 23 497 46 214 27 439 5 573 -56 l59 -26
-77 -110 c-43 -60 -78 -111 -79 -112 -1 -1 -42 -7 -91 -13 -50 -7 -189 -29
-310 -50 -290 -51 -333 -54 -515 -41 -144 11 -339 35 -378 47 -39 12 59 -60
124 -92 128 -62 207 -77 394 -77 91 -1 215 5 275 12 117 13 338 48 369 57 25
8 23 5 -111 -167 -148 -190 -264 -330 -426 -511 l-132 -148 -62 0 c-34 0 -189
-21 -345 -46 -427 -69 -541 -68 -797 5 -58 17 -107 28 -110 25 -18 -18 207
-133 309 -158 131 -33 384 -31 656 5 45 5 107 9 139 7 l58 -3 -184 -175 c-203
-193 -368 -341 -532 -477 -102 -85 -113 -91 -210 -122 -183 -57 -273 -71 -468
-71 -221 0 -358 14 -461 46 -44 14 -82 23 -84 21 -9 -9 71 -68 131 -97 139
-66 400 -103 587 -82 57 7 114 15 128 18 33 9 37 13 -130 -108 -389 -280 -795
-531 -1210 -746 -133 -68 -166 -81 -233 -91 -159 -23 -293 -11 -526 44 -57 14
-106 24 -108 21 -8 -8 74 -68 132 -96 55 -27 149 -54 265 -77 l45 -8 -110 -49
c-900 -396 -1902 -657 -2880 -750 -444 -42 -1106 -54 -1490 -28 -996 70 -1865
256 -2749 589 -553 208 -1164 510 -1663 822 -73 46 -133 85 -133 86 0 2 24 -4
54 -15 126 -43 206 -55 361 -54 132 1 170 5 315 37 453 97 733 113 934 51 11
-4 16 -2 12 4 -3 5 -47 26 -97 46 -265 106 -505 112 -887 22 -212 -50 -287
-59 -479 -54 -233 6 -310 27 -448 119 -55 37 -158 110 -228 162 l-128 95 58 7
c32 3 146 24 253 45 246 49 399 70 570 77 114 4 150 2 229 -16 52 -11 96 -19
98 -17 7 7 -140 67 -221 90 -221 64 -428 58 -776 -24 -143 -34 -223 -48 -297
-52 l-53 -3 -142 117 c-148 120 -371 315 -376 328 -5 13 298 44 418 43 83 -1
137 -7 194 -22 44 -12 81 -19 83 -18 5 6 -126 64 -197 87 -151 48 -353 63
-544 38 l-90 -11 -210 214 c-116 118 -269 279 -340 359 l-129 145 34 3 c19 2
122 21 230 42 382 77 666 100 814 66 39 -8 81 -18 95 -21 54 -13 -76 48 -173
80 -233 77 -451 75 -806 -10 -80 -18 -177 -38 -214 -43 l-68 -9 -43 51 c-128
151 -422 543 -413 552 10 10 255 35 357 35 60 0 135 -6 175 -15 39 -8 81 -18
95 -21 65 -14 -148 77 -236 101 -91 25 -116 28 -294 29 l-194 2 -64 94 c-35
52 -68 102 -73 112 -9 16 34 17 845 17 l855 0 240 -152z m9751 -403 l0 -535
-140 0 -140 0 0 -135 0 -135 -35 0 -35 0 0 670 0 670 175 0 175 0 0 -535z
m-8978 303 c142 -89 258 -164 258 -167 -2 -16 -136 -234 -145 -234 -18 0 -515
318 -512 328 3 15 131 235 137 235 2 0 120 -73 262 -162z m9978 70 c-141 -127
-140 -125 -140 -162 0 -33 -2 -35 -42 -40 -24 -3 -100 -7 -171 -8 l-127 -3 0
112 0 111 73 6 c132 11 161 12 302 14 l140 1 -35 -31z m220 -11 c0 -39 -5 -48
-60 -102 l-60 -59 0 102 0 102 60 0 60 0 0 -43z m1174 -191 l56 -119 -237
-241 c-131 -133 -240 -242 -243 -244 -3 -1 -34 55 -68 125 l-64 126 243 243
c134 134 247 240 250 236 4 -4 32 -61 63 -126z m-6974 -1046 l0 -1130 440 0
c318 0 440 -3 440 -11 0 -11 -56 -256 -66 -291 -5 -17 -50 -18 -759 -18 l-754
0 80 137 79 138 0 1152 0 1153 270 0 270 0 0 -1130z m1450 735 l0 -395 -115 0
-115 0 0 -135 0 -135 -130 0 -130 0 0 135 0 135 -80 0 -80 0 0 395 0 395 325
0 325 0 0 -395z m2500 0 l0 -395 -145 0 -145 0 0 -135 0 -135 -110 0 -110 0 0
530 0 530 255 0 255 0 0 -395z m1490 192 l0 -73 -70 -69 -70 -69 0 133 0 133
-77 -68 c-43 -38 -88 -77 -101 -88 l-23 -20 3 89 3 90 120 5 c66 4 141 7 168
8 l47 2 0 -73z m-9243 -122 l253 -157 -81 -119 c-44 -65 -82 -119 -85 -119
-11 0 -164 103 -164 111 0 5 -6 9 -14 9 -8 0 -89 48 -181 106 -159 102 -165
107 -152 128 7 11 40 67 72 124 55 98 58 102 79 89 11 -8 135 -85 273 -172z
m10251 -281 l63 -126 -202 -207 c-112 -113 -231 -235 -265 -270 l-62 -64 -65
129 -64 129 260 267 c143 148 263 268 266 268 4 0 35 -57 69 -126z m-9643 -99
c149 -92 276 -173 283 -180 10 -9 -4 -35 -67 -126 -43 -63 -85 -114 -93 -113
-14 1 -562 345 -586 368 -11 11 -3 28 44 97 105 154 103 152 127 136 12 -8
144 -90 292 -182z m3465 -270 l0 -135 205 0 205 0 0 135 0 135 115 0 115 0 0
-135 0 -135 180 0 180 0 0 135 0 135 135 0 135 0 0 -135 0 -135 180 0 180 0 0
135 0 135 125 0 125 0 0 -135 0 -135 170 0 170 0 0 135 0 135 135 0 135 0 0
-135 0 -135 170 0 170 0 0 135 0 135 145 0 145 0 0 -135 0 -135 160 0 160 0 0
135 0 135 125 0 125 0 0 -135 0 -135 195 0 195 0 0 135 0 135 115 0 115 0 0
-685 0 -685 -2265 0 -2265 0 0 685 0 685 110 0 110 0 0 -135z m-2792 -153
c171 -107 312 -199 312 -204 0 -5 -36 -63 -81 -128 l-81 -118 -324 207 c-178
113 -322 211 -320 217 2 6 39 61 81 122 48 70 81 110 88 106 7 -4 153 -95 325
-202z m8407 -59 l58 -123 -241 -247 c-132 -137 -267 -275 -300 -307 l-60 -59
-65 134 -64 134 300 302 c166 167 304 299 308 295 4 -4 33 -62 64 -129z
m-7658 -409 c208 -130 379 -238 380 -239 8 -6 -170 -249 -180 -247 -9 3 -742
466 -755 477 -5 5 161 245 170 245 4 0 178 -106 385 -236z m7074 -370 c-3 -6
-137 -145 -298 -309 l-292 -297 -10 39 c-6 21 -26 95 -43 165 l-33 128 275
275 275 275 66 -133 c37 -72 64 -137 60 -143z m-3412 -306 c0 -7 -13 -76 -28
-153 l-28 -140 -484 -6 c-266 -3 -485 -5 -485 -5 -1 1 14 72 34 159 l36 157
478 0 c376 0 478 -3 477 -12z m921 -143 l0 -155 -464 0 -464 0 14 71 c7 40 21
110 30 155 l17 84 433 0 434 0 0 -155z m925 133 c10 -44 55 -271 55 -279 0 -5
-209 -9 -465 -9 l-465 0 0 155 0 155 435 0 435 0 5 -22z m854 -15 c5 -21 21
-84 35 -139 14 -56 29 -109 32 -118 6 -15 -31 -16 -404 -16 l-409 0 -27 138
c-15 75 -29 145 -32 155 -5 16 18 17 395 17 l400 0 10 -37z"/>
<path d="M9680 19130 l-165 -5 0 -30 c0 -30 1 -30 62 -35 71 -6 81 -13 94 -66
13 -58 32 -591 26 -724 -7 -140 -20 -182 -72 -236 -62 -64 -134 -87 -270 -88
-94 -1 -117 3 -161 22 -60 27 -107 72 -128 123 -24 57 -36 218 -43 584 l-6
343 22 12 c13 6 47 14 77 17 51 6 54 7 54 34 l0 28 -227 -5 c-126 -3 -234 -8
-241 -10 -8 -2 -12 -15 -10 -31 3 -27 6 -28 65 -31 36 -2 66 -8 72 -16 14 -17
28 -214 41 -596 5 -162 15 -316 21 -341 14 -64 66 -146 114 -180 72 -51 147
-72 280 -77 73 -3 141 0 175 8 130 29 238 110 286 215 38 83 43 172 31 565 -6
195 -7 372 -3 392 10 53 29 68 86 68 55 0 60 4 53 43 -5 23 -10 27 -37 25 -17
-1 -105 -5 -196 -8z"/>
<path d="M10080 19107 c0 -33 2 -35 60 -52 40 -12 62 -24 66 -38 3 -10 3 -60
-1 -110 -15 -206 -105 -908 -122 -953 -3 -8 -23 -24 -44 -35 -28 -14 -39 -26
-39 -43 0 -22 4 -23 98 -29 53 -4 151 -16 217 -28 154 -29 316 -30 400 -5 227
68 390 244 457 495 30 113 30 302 -1 391 -61 174 -176 281 -363 339 -40 12
-179 33 -339 51 -150 17 -295 35 -322 41 -68 13 -67 13 -67 -24z m589 -132
c227 -54 343 -209 344 -460 1 -302 -126 -541 -323 -610 -72 -25 -192 -30 -293
-11 -144 27 -134 17 -125 137 10 125 93 818 109 908 l12 64 106 -7 c58 -3 135
-13 170 -21z"/>
<path d="M8355 19029 c-88 -17 -290 -49 -448 -73 -158 -24 -290 -45 -292 -48
-3 -2 4 -45 14 -94 11 -49 22 -113 26 -141 7 -50 8 -53 37 -53 l29 0 -3 99
c-2 55 0 102 3 106 8 7 170 41 243 50 l53 7 7 -39 c4 -21 34 -207 67 -413 71
-449 91 -604 79 -636 -9 -22 -46 -38 -110 -46 -21 -3 -25 -7 -22 -33 2 -16 5
-31 6 -32 1 -1 61 9 134 22 72 13 179 30 237 37 l105 12 0 33 0 33 -74 -7
c-66 -5 -75 -4 -84 13 -15 29 -37 148 -96 529 -73 471 -82 545 -66 555 12 7
157 28 215 31 73 3 72 4 90 -73 9 -40 19 -81 22 -90 3 -12 14 -18 35 -18 30 0
30 0 24 43 -5 35 -25 226 -26 250 0 11 -33 7 -205 -24z"/>
<path d="M11414 18946 c-13 -33 1 -50 51 -62 63 -17 77 -35 69 -94 -7 -53
-103 -527 -145 -719 -68 -314 -77 -331 -166 -313 -52 11 -63 5 -63 -34 0 -19
9 -23 76 -34 42 -6 142 -27 222 -46 80 -19 149 -34 153 -34 4 0 9 14 11 30 4
26 1 31 -21 36 -14 3 -42 11 -61 18 -59 20 -57 34 61 596 82 393 96 454 115
498 15 37 22 38 122 17 30 -7 32 -6 32 19 0 14 0 29 0 33 1 4 -41 15 -92 24
-51 9 -151 31 -221 48 -150 36 -136 35 -143 17z"/>
<path d="M7122 18790 c-242 -64 -379 -246 -343 -455 22 -126 82 -224 165 -268
53 -28 160 -28 304 2 204 42 286 22 335 -81 50 -104 42 -207 -22 -295 -62 -85
-251 -150 -367 -125 -79 16 -104 39 -129 113 -16 46 -27 65 -41 67 -41 5 -43
-9 -14 -123 15 -60 31 -122 34 -137 l6 -28 104 0 c256 0 453 107 543 296 36
76 38 83 38 184 0 99 -2 110 -33 172 -38 77 -96 133 -156 149 -48 13 -149 6
-261 -17 -44 -10 -119 -18 -166 -18 -79 -1 -88 1 -122 27 -51 39 -79 98 -85
178 -6 83 9 130 60 185 52 56 123 86 220 92 143 8 173 -7 203 -108 18 -61 23
-64 61 -54 21 6 21 7 7 62 -9 32 -21 89 -27 127 l-12 70 -115 2 c-86 2 -132
-3 -187 -17z"/>
<path d="M12345 18694 c-11 -2 -45 -9 -75 -15 -128 -26 -279 -136 -358 -262
-143 -227 -171 -521 -70 -727 47 -97 145 -190 250 -239 196 -92 373 -92 558 1
66 33 103 61 165 123 96 96 136 162 183 298 41 118 53 259 32 360 -52 251
-293 437 -595 460 -38 3 -79 3 -90 1z m212 -109 c240 -81 343 -290 287 -585
-73 -387 -313 -603 -581 -522 -134 41 -232 138 -274 272 -30 92 -36 241 -15
354 73 386 302 575 583 481z"/>
<path d="M13320 18351 c-16 -31 -13 -36 35 -59 69 -34 73 -53 32 -153 -41 -98
-360 -762 -404 -841 -25 -44 -36 -54 -61 -56 -17 -2 -49 6 -71 17 -22 12 -42
21 -45 21 -2 0 -9 -13 -14 -30 -11 -29 -10 -30 51 -57 34 -14 131 -61 215
-104 l152 -78 14 28 c14 27 14 27 -40 55 -65 34 -74 57 -49 124 25 67 232 503
345 727 l95 190 43 -3 c102 -6 217 -78 253 -156 40 -89 10 -207 -75 -292 -83
-84 -182 -96 -309 -37 -90 43 -93 38 -63 -118 14 -68 41 -247 62 -397 l37
-273 100 -50 c55 -27 101 -48 102 -47 22 30 22 44 0 68 -21 21 -29 51 -49 173
-35 207 -80 527 -75 531 2 2 29 0 59 -4 212 -29 405 124 404 320 0 124 -73
206 -264 297 -63 30 -192 93 -286 139 -93 46 -173 84 -177 84 -3 0 -11 -9 -17
-19z"/>
<path d="M5617 18159 c-206 -27 -393 -142 -463 -285 -39 -80 -45 -196 -15
-285 44 -130 141 -230 238 -245 60 -9 113 4 275 67 144 55 187 65 243 55 74
-14 147 -113 161 -219 23 -167 -164 -339 -369 -339 -85 0 -104 12 -146 91 -18
34 -34 61 -37 61 -3 0 -15 -7 -28 -15 l-23 -15 43 -88 c69 -138 69 -138 27
-157 -32 -15 -39 -16 -72 -3 -20 8 -262 167 -536 353 -275 185 -504 339 -510
341 -5 2 -20 -4 -32 -14 l-23 -17 20 -70 c25 -89 198 -842 239 -1039 17 -82
29 -157 26 -167 -3 -10 -20 -30 -38 -45 -17 -15 -32 -34 -32 -42 0 -16 -59
-62 -78 -62 -18 0 -96 89 -342 385 -269 326 -368 452 -363 464 4 12 145 129
183 152 16 11 37 19 45 19 8 0 42 -27 76 -61 55 -54 64 -60 83 -50 27 15 26
23 -2 58 -13 15 -52 68 -86 116 -55 76 -65 86 -79 75 -9 -7 -93 -80 -187 -163
-95 -82 -253 -217 -353 -300 l-182 -150 44 -45 c34 -36 98 -111 146 -172 3 -4
16 1 28 11 l24 18 -51 78 c-28 42 -51 83 -51 90 0 13 90 101 174 170 l49 40
40 -45 c74 -84 512 -615 574 -698 86 -113 87 -122 27 -183 l-48 -49 21 -22 22
-21 69 65 c38 36 120 107 183 158 62 51 114 99 114 106 0 14 147 127 222 171
24 14 43 27 43 29 0 3 -7 16 -16 29 l-16 24 -61 -30 c-61 -31 -61 -31 -78 -11
-9 11 -31 76 -48 143 -54 202 -70 164 138 311 99 70 184 129 189 130 17 6 282
-195 282 -213 0 -10 -20 -35 -45 -56 -48 -40 -52 -48 -31 -76 13 -17 23 -12
137 73 68 51 150 108 181 127 37 23 55 40 51 49 -3 10 2 14 19 14 14 0 60 9
103 20 297 76 489 316 447 561 -26 153 -124 272 -242 294 -48 9 -109 -7 -260
-65 -70 -27 -149 -54 -175 -60 -93 -21 -168 22 -216 125 -84 177 33 349 262
386 94 15 123 0 166 -86 14 -27 27 -51 28 -53 4 -5 55 21 55 28 0 4 -15 40
-34 81 -19 41 -39 93 -45 117 -7 23 -13 41 -14 41 -1 -1 -33 -5 -70 -10z
m-815 -1143 c70 -48 130 -91 133 -96 5 -8 -303 -236 -309 -229 -2 2 -32 124
-68 271 l-65 267 91 -63 c50 -34 148 -102 218 -150z"/>
<path d="M6336 17941 c-36 -38 -36 -88 2 -124 39 -37 84 -37 111 2 44 61 17
131 -55 144 -25 5 -36 1 -58 -22z"/>
<path d="M14381 17809 c-12 -20 -9 -25 33 -61 26 -22 46 -48 46 -59 0 -38 -35
-93 -306 -484 -83 -121 -167 -249 -185 -285 -30 -58 -34 -74 -34 -145 0 -109
31 -173 134 -275 199 -198 419 -244 590 -126 54 38 128 132 311 396 268 387
265 385 350 332 l49 -30 15 23 c9 14 16 27 16 29 0 3 -21 18 -47 33 -27 15
-101 67 -165 115 l-116 87 -17 -26 c-16 -24 -16 -26 17 -54 18 -15 36 -28 39
-29 4 0 12 -13 19 -29 10 -25 8 -35 -11 -72 -21 -44 -209 -324 -328 -491 -139
-196 -221 -256 -331 -244 -122 14 -284 125 -336 232 -22 45 -26 64 -22 117 3
52 11 77 46 138 47 81 312 469 405 592 66 89 79 93 151 47 49 -32 59 -32 76 0
9 17 -1 27 -82 81 -51 35 -137 95 -190 136 -53 40 -101 73 -105 73 -5 0 -14
-10 -22 -21z"/>
<path d="M15532 17008 l-21 -22 40 -43 c25 -27 38 -50 35 -59 -3 -9 -6 -21 -6
-28 0 -19 -72 -99 -381 -422 -249 -262 -350 -354 -384 -354 -6 0 -30 16 -54
36 -41 35 -42 36 -62 18 -11 -9 -18 -20 -17 -23 2 -4 65 -67 141 -140 l138
-135 21 22 22 22 -31 32 c-63 67 -63 85 0 158 56 66 572 608 575 605 4 -4
-261 -735 -339 -935 -69 -176 -71 -175 168 -67 149 68 726 313 843 358 l24 10
-19 -23 c-62 -71 -601 -631 -625 -648 -15 -11 -33 -20 -39 -20 -6 0 -31 18
-55 40 l-44 40 -16 -25 -17 -26 163 -160 163 -160 18 22 c17 22 17 23 -12 53
-66 68 -61 89 49 211 136 149 603 634 625 649 38 25 66 19 107 -21 l38 -37 22
21 21 22 -114 113 -114 113 -165 -73 c-133 -60 -387 -167 -797 -337 l-32 -13
44 121 c76 214 245 677 291 795 24 63 43 115 42 116 -2 1 -53 49 -113 108
l-111 108 -22 -22z"/>
<path d="M3150 16419 c-18 -23 -89 -100 -158 -171 l-125 -129 21 -22 22 -21
36 36 c44 46 68 54 99 34 68 -45 719 -687 744 -734 17 -32 7 -64 -31 -108
l-32 -36 24 -18 25 -19 49 57 c28 31 100 108 160 170 l110 112 -21 22 -22 21
-45 -41 c-25 -23 -52 -42 -61 -42 -23 0 -145 112 -483 446 -216 214 -312 315
-312 330 0 12 19 42 41 68 23 26 40 48 38 49 -2 1 -13 10 -25 20 -20 17 -22
16 -54 -24z"/>
<path d="M2731 15920 c-174 -95 -303 -255 -331 -408 -22 -121 20 -240 117
-336 93 -92 205 -133 289 -106 57 19 111 59 227 169 114 108 166 141 224 141
83 -1 185 -78 219 -165 23 -61 16 -164 -15 -228 -52 -107 -178 -210 -273 -223
-42 -6 -48 -3 -101 40 -31 25 -60 46 -64 46 -5 0 -14 -10 -22 -22 -12 -20 -7
-27 85 -114 55 -51 104 -93 109 -94 13 0 108 63 168 113 93 77 181 215 207
326 16 70 8 190 -18 258 -54 141 -193 253 -314 253 -77 0 -123 -31 -301 -197
-54 -50 -113 -98 -131 -107 -77 -37 -176 -9 -244 69 -112 127 -67 317 100 425
99 65 128 64 216 -9 l44 -35 19 25 18 24 -57 55 c-32 30 -72 72 -88 92 l-29
37 -54 -29z"/>
<path d="M16281 15291 c-53 -50 -40 -130 25 -157 95 -40 181 88 106 159 -39
38 -89 37 -131 -2z"/>
<path d="M17112 15285 l-22 -16 24 -37 c39 -60 40 -76 9 -112 -15 -18 -178
-133 -363 -254 -514 -340 -513 -340 -571 -316 -25 11 -33 11 -45 -1 -12 -13
-8 -23 31 -79 25 -36 73 -112 107 -169 34 -56 83 -126 109 -155 165 -180 433
-193 597 -28 85 84 102 186 52 312 -11 27 -17 50 -15 50 3 0 22 -10 43 -23
107 -67 203 -75 300 -26 74 37 117 86 138 156 14 47 14 59 -1 114 -18 70 -22
79 -155 279 -53 80 -120 184 -149 233 -29 48 -56 87 -59 87 -4 0 -17 -7 -30
-15z m172 -351 c83 -108 107 -215 64 -288 -29 -50 -104 -101 -166 -115 -78
-16 -126 1 -197 74 -33 33 -70 79 -83 102 l-22 42 62 43 c96 65 292 188 300
188 4 0 23 -21 42 -46z m-432 -292 c117 -182 118 -295 4 -400 -72 -66 -146
-97 -231 -97 -85 1 -131 22 -193 89 -46 50 -103 157 -87 163 6 2 109 71 230
153 121 82 225 149 230 149 6 1 27 -25 47 -57z"/>
<path d="M2078 15021 c-91 -30 -165 -111 -289 -319 -51 -86 -121 -199 -156
-249 -35 -51 -63 -96 -63 -101 0 -4 10 -13 22 -21 21 -13 24 -12 43 15 32 44
63 74 78 74 22 0 187 -103 532 -332 322 -212 385 -259 385 -286 0 -8 -13 -39
-29 -67 -28 -49 -28 -52 -10 -63 10 -7 23 -12 28 -12 5 0 37 46 72 103 34 56
91 144 126 196 34 51 63 95 63 98 0 7 -33 32 -42 33 -4 0 -21 -20 -38 -45 -46
-67 -61 -72 -123 -39 -62 32 -551 351 -725 473 -122 85 -124 87 -118 119 8 49
49 133 86 176 97 110 251 100 363 -24 93 -103 89 -218 -13 -377 -26 -41 -6
-45 146 -34 76 6 236 11 355 11 119 0 237 3 263 6 43 6 49 11 68 48 11 23 36
63 56 90 l35 48 -24 19 c-23 17 -24 17 -42 -2 -9 -10 -28 -21 -40 -24 -19 -4
-558 -25 -645 -25 l-30 0 15 48 c23 72 20 186 -6 254 -55 142 -227 246 -343
209z"/>
<path d="M17706 14357 c-15 -11 -16 -16 -3 -47 28 -69 29 -88 5 -111 -24 -22
-816 -421 -900 -453 -66 -26 -90 -17 -118 44 -13 27 -25 50 -26 50 -11 0 -54
-25 -54 -31 0 -5 22 -50 49 -101 28 -51 73 -145 101 -208 28 -63 53 -116 55
-118 3 -3 41 14 53 23 1 1 -7 22 -18 46 -11 24 -20 59 -20 76 0 29 6 36 53 63
158 91 845 426 894 436 24 5 33 -1 65 -44 105 -138 113 -267 23 -358 -77 -77
-219 -107 -310 -65 -52 23 -111 89 -141 158 -17 38 -29 53 -40 51 -10 -2 -43
-55 -78 -123 -34 -66 -121 -224 -194 -352 l-133 -232 31 -60 c38 -77 124 -288
184 -455 26 -71 53 -135 61 -143 15 -15 31 -64 41 -125 6 -33 11 -39 43 -47
309 -79 583 -160 579 -171 -2 -4 -103 -103 -226 -221 -182 -174 -222 -217
-217 -234 21 -71 56 -216 60 -245 2 -19 15 -105 29 -190 14 -85 28 -181 32
-213 5 -43 10 -57 20 -53 8 3 16 -3 19 -17 5 -23 25 -283 25 -329 0 -24 4 -28
29 -28 32 0 41 17 41 86 0 62 21 75 88 58 30 -8 106 -36 170 -62 l117 -48 11
-129 c7 -72 12 -162 13 -201 l1 -71 -107 -6 c-58 -4 -139 -7 -179 -7 -72 0
-72 0 -94 35 -15 24 -29 35 -46 35 -13 0 -24 -3 -24 -7 0 -5 4 -46 10 -93 5
-47 14 -179 20 -295 11 -204 25 -361 36 -388 4 -11 37 -14 155 -13 l150 1 -3
30 c-3 30 -3 30 -97 42 -52 7 -98 16 -102 20 -21 23 -41 136 -51 286 -6 92 -9
170 -7 172 3 2 97 11 209 19 113 9 226 18 251 20 l47 5 6 -37 c11 -61 19 -257
12 -285 -7 -29 -52 -47 -118 -47 -35 0 -38 -2 -38 -29 0 -17 3 -32 8 -34 4 -3
72 1 152 9 80 7 171 13 203 14 l58 0 -3 33 -3 32 -60 -3 c-38 -2 -66 1 -78 10
-20 15 -32 78 -42 229 -7 99 -6 107 11 112 31 9 430 31 446 24 31 -12 49 -350
22 -420 -6 -17 -82 -37 -139 -37 -27 0 -35 -4 -35 -17 0 -36 14 -40 153 -45
l137 -5 0 91 c0 50 -9 183 -19 296 -11 113 -22 275 -26 360 -3 85 -8 176 -11
203 -6 44 -8 47 -35 47 l-29 0 0 -79 c0 -85 -5 -94 -50 -81 -26 8 -973 407
-1048 442 -43 21 -72 59 -72 98 0 13 -7 20 -19 20 -14 0 -20 10 -24 45 -9 64
4 92 50 104 66 17 191 40 418 76 384 62 542 85 589 85 44 0 45 -1 55 -37 6
-21 11 -46 11 -55 0 -34 10 -44 40 -40 35 5 34 1 16 89 -13 61 -56 348 -56
373 0 5 -14 10 -30 10 l-30 0 2 -70 c2 -54 -1 -73 -12 -80 -23 -14 -89 -27
-440 -86 -390 -64 -586 -90 -622 -81 -26 7 -43 38 -50 97 -2 16 -11 26 -28 31
-22 6 -23 7 -4 8 19 1 22 7 22 50 0 34 6 58 20 78 11 15 124 131 251 258 l230
229 46 -12 c45 -12 402 -144 478 -176 26 -12 43 -28 54 -54 10 -20 18 -39 19
-40 2 -2 16 -1 32 3 l30 6 -22 85 c-13 46 -25 86 -27 87 -2 2 -121 39 -264 82
-143 43 -262 80 -265 83 -3 2 72 79 166 170 95 92 184 186 199 210 l28 42 -53
115 c-51 110 -54 114 -79 108 -36 -8 -36 -8 -22 -53 9 -32 9 -46 -4 -76 -23
-57 -101 -147 -263 -306 l-150 -148 -298 101 c-165 55 -310 107 -322 115 -13
9 -30 31 -38 50 -12 29 -19 34 -37 29 -14 -4 -17 -3 -9 2 9 7 9 19 -4 56 -25
75 -19 87 66 129 148 73 893 358 936 358 22 0 29 -9 51 -60 23 -52 29 -59 47
-54 12 3 24 9 28 13 4 3 -15 60 -41 126 -26 66 -63 164 -82 218 -32 94 -35 98
-59 92 -35 -9 -36 -10 -17 -63 32 -88 28 -93 -122 -156 -165 -69 -642 -254
-755 -292 -124 -42 -141 -43 -165 -4 -28 48 -55 134 -48 161 6 24 254 483 302
559 l26 41 64 -59 c86 -81 150 -106 260 -100 98 6 164 36 222 102 101 114 85
217 -81 540 -51 100 -108 216 -126 259 -34 79 -43 87 -74 64z m939 -4024 c94
-41 182 -80 198 -86 58 -24 41 -27 -283 -52 -107 -8 -229 -17 -271 -21 l-76
-6 -6 34 c-3 18 -9 87 -12 153 -3 66 -8 132 -11 147 l-5 27 148 -61 c81 -33
225 -94 318 -135z"/>
<path d="M1392 13993 c-33 -71 -97 -210 -141 -310 -44 -101 -101 -223 -126
-273 -25 -49 -45 -93 -45 -98 0 -8 50 -36 55 -30 1 2 14 24 30 51 43 75 53 76
175 27 72 -28 722 -335 780 -368 58 -33 90 -62 90 -81 0 -9 -9 -35 -20 -59
l-19 -43 25 -9 c14 -6 28 -10 32 -10 4 0 20 33 36 73 16 39 85 189 154 332
105 221 172 371 172 390 0 3 -22 16 -48 29 -26 13 -86 47 -132 75 l-85 51 -14
-27 c-15 -30 -24 -20 87 -105 59 -46 61 -48 55 -85 -8 -53 -52 -162 -120 -297
l-58 -115 -225 105 c-123 58 -226 107 -228 109 -10 10 90 231 130 288 24 33
63 35 127 7 24 -11 45 -19 46 -18 9 12 26 50 23 54 -2 2 -51 24 -109 50 -57
25 -139 64 -183 87 -75 39 -79 40 -92 22 -22 -30 -17 -39 37 -65 71 -34 78
-48 56 -111 -28 -77 -119 -269 -128 -269 -4 0 -101 45 -215 100 -238 115 -221
87 -152 248 51 118 97 198 135 234 l28 27 73 -30 c40 -16 75 -29 77 -29 2 0 8
13 13 29 9 26 8 29 -26 46 -21 9 -74 41 -119 71 -44 30 -83 54 -85 54 -3 0
-32 -57 -66 -127z"/>
<path d="M1020 13188 c-6 -24 -31 -103 -56 -177 -24 -74 -43 -135 -42 -137 2
-1 15 -5 30 -9 26 -7 29 -4 54 54 23 53 30 61 53 61 34 0 137 -75 493 -357
l288 -228 -167 -6 c-93 -4 -313 -10 -490 -14 -371 -9 -348 -15 -321 87 l16 59
-25 10 c-39 15 -42 12 -60 -53 -9 -35 -40 -131 -68 -215 l-51 -152 28 -10 c29
-10 30 -9 50 39 13 31 27 50 37 50 9 0 252 9 541 20 289 11 570 20 626 20
l101 0 12 41 c7 23 11 42 9 44 -2 2 -59 45 -128 97 -123 92 -699 554 -814 652
l-58 50 5 49 c4 44 2 49 -20 58 -13 5 -26 9 -28 9 -2 0 -9 -19 -15 -42z"/>
<path d="M645 11966 c-2 -12 -13 -73 -25 -136 -12 -63 -32 -158 -45 -210 -13
-52 -23 -96 -21 -97 1 -2 16 -6 33 -9 29 -6 30 -5 37 38 10 61 30 88 66 88 59
0 829 -162 958 -201 92 -29 94 -31 90 -108 -3 -62 -2 -65 24 -72 l26 -7 27
144 c15 79 37 184 50 233 19 77 20 91 8 95 -36 14 -51 6 -58 -31 -11 -63 -32
-93 -63 -93 -62 0 -978 197 -1028 222 -32 15 -35 34 -20 114 7 41 7 42 -24 46
-25 4 -31 1 -35 -16z"/>
<path d="M515 11313 c-8 -91 -33 -282 -41 -302 -6 -17 13 -31 42 -31 17 0 23
10 33 53 6 30 19 64 28 76 15 22 20 23 92 17 161 -13 851 -101 851 -108 0 -12
-558 -339 -895 -523 -241 -132 -223 -117 -230 -183 -3 -31 -12 -96 -19 -145
-7 -48 -10 -89 -8 -92 3 -3 18 -5 32 -5 25 0 28 4 34 50 8 56 43 90 94 90 35
0 806 -95 902 -111 36 -6 80 -18 98 -25 l34 -14 -4 -65 c-3 -67 1 -75 42 -75
15 0 19 12 25 73 6 67 33 284 38 310 1 7 -12 13 -30 15 -31 3 -32 2 -43 -52
-6 -30 -18 -60 -26 -67 -11 -9 -45 -10 -127 -6 -114 7 -804 91 -813 99 -2 3
168 103 378 223 512 292 688 398 719 432 25 26 66 129 56 139 -2 2 -79 11
-170 19 -263 23 -929 108 -984 126 -38 12 -43 24 -43 100 0 59 0 59 -29 59
-29 0 -29 0 -36 -77z"/>
<path d="M391 9903 c-22 -4 -23 -8 -17 -56 3 -29 6 -118 6 -199 l0 -148 35 0
35 0 0 58 c0 32 6 66 13 75 19 26 95 34 438 47 339 13 436 7 508 -29 85 -44
131 -140 138 -292 6 -112 -10 -182 -57 -247 -63 -87 -112 -96 -605 -113 -299
-10 -355 -10 -380 2 -32 15 -42 41 -44 107 -1 40 -3 42 -31 42 l-30 0 6 -232
c3 -128 8 -239 10 -246 2 -8 15 -12 31 -10 26 3 28 6 29 53 1 70 10 92 42 99
15 3 146 10 292 16 426 17 582 28 636 44 103 32 186 139 215 275 18 88 7 294
-20 363 -34 88 -80 148 -149 195 -96 65 -116 67 -593 58 -415 -7 -417 -7 -438
14 -14 14 -21 34 -21 60 0 42 -8 72 -19 70 -3 -1 -17 -4 -30 -6z"/>
<path d="M9292 14018 l3 -203 53 -3 52 -3 0 205 0 206 -55 0 -55 0 2 -202z"/>
<path d="M9610 14000 l0 -210 50 0 50 0 0 200 0 200 -25 5 c-14 3 -36 7 -50
10 l-25 5 0 -210z"/>
<path d="M9035 14191 l-30 -6 -3 -198 c-3 -219 -8 -206 67 -191 l31 7 0 198
c0 220 5 205 -65 190z"/>
<path d="M9000 13458 c0 -109 1 -118 19 -118 10 0 33 -3 50 -6 l32 -7 -3 119
-3 119 -47 5 -48 6 0 -118z"/>
<path d="M9295 13547 c-3 -7 -4 -60 -3 -118 l3 -104 50 0 50 0 0 115 0 115
-48 3 c-33 2 -49 -1 -52 -11z"/>
<path d="M5300 13021 l0 -149 44 -11 c25 -6 50 -11 55 -11 7 0 11 51 11 149
l0 149 -44 11 c-25 6 -50 11 -55 11 -7 0 -11 -51 -11 -149z"/>
<path d="M5300 12633 l0 -149 49 -16 c28 -9 52 -13 55 -10 3 3 6 70 6 149 0
160 5 150 -77 168 l-33 7 0 -149z"/>
<path d="M13680 12570 c0 -137 0 -140 23 -145 67 -14 62 -24 62 125 l0 134
-42 12 -43 13 0 -139z"/>
<path d="M13870 12535 l0 -135 28 -6 c15 -3 35 -8 45 -11 16 -4 17 7 17 135
l0 140 -31 6 c-61 12 -59 17 -59 -129z"/>
<path d="M5578 10694 c-4 -3 -84 -9 -180 -14 -241 -11 -279 -27 -418 -174 -41
-44 -130 -134 -197 -201 -232 -229 -330 -364 -402 -555 -25 -65 -24 -60 -7
-60 7 0 23 23 34 51 37 88 115 209 190 295 89 103 214 211 252 219 31 7 62 39
150 152 60 78 133 138 226 184 51 25 81 32 170 40 129 11 180 23 188 46 7 17
3 27 -6 17z"/>
<path d="M6040 9991 c-72 -15 -268 -97 -300 -126 -14 -13 -39 -30 -55 -38 -17
-8 -49 -38 -72 -65 -38 -45 -51 -53 -128 -77 -64 -21 -94 -37 -123 -64 -42
-42 -141 -219 -149 -266 -4 -24 -20 -41 -74 -79 -90 -64 -149 -128 -181 -196
-22 -46 -27 -76 -33 -184 -6 -104 -12 -139 -31 -183 -34 -77 -70 -231 -90
-388 -3 -22 -1 -51 5 -65 9 -23 10 -23 10 13 1 21 19 102 42 180 38 132 71
206 119 267 15 19 23 50 29 125 11 117 28 170 75 234 44 59 115 127 142 135
15 5 31 34 61 109 53 138 118 225 197 266 32 17 66 31 75 31 9 0 42 34 74 75
122 158 317 266 502 278 22 1 40 7 40 12 0 12 -86 16 -135 6z"/>
<path d="M4730 9466 c-72 -27 -86 -34 -99 -49 -7 -9 -27 -19 -44 -22 -18 -4
-54 -21 -82 -40 -27 -18 -68 -38 -90 -45 -22 -7 -96 -39 -165 -72 -119 -58
-130 -65 -231 -167 -58 -59 -123 -115 -145 -125 -141 -65 -252 -139 -378 -253
-99 -90 -165 -179 -222 -303 -15 -30 -35 -74 -46 -98 -50 -108 3 -40 181 231
19 29 41 56 50 61 9 5 39 32 66 61 53 55 121 99 170 111 17 4 46 15 65 25 20
9 62 22 95 28 67 12 73 18 228 199 84 98 142 145 212 168 24 9 94 53 155 98
114 85 207 137 294 166 50 17 74 40 39 40 -10 -1 -34 -7 -53 -14z"/>
<path d="M5205 8020 c-9 -18 -23 -49 -30 -70 -20 -58 -80 -137 -170 -225 -85
-83 -153 -190 -174 -270 -21 -82 -67 -203 -95 -251 -16 -27 -74 -96 -127 -154
-117 -125 -175 -204 -201 -273 -11 -28 -28 -63 -39 -79 -11 -15 -23 -40 -25
-55 -3 -16 -9 -32 -15 -37 -5 -6 -9 -30 -8 -55 l1 -46 37 77 c20 42 58 99 84
127 26 27 47 55 47 61 0 6 27 41 61 78 140 155 207 227 250 271 47 47 59 78
124 306 27 95 101 235 158 299 67 76 99 135 126 236 24 88 22 111 -4 60z"/>
<path d="M12923 10645 c2 -5 34 -13 71 -17 107 -10 324 -87 396 -139 22 -16
44 -29 48 -29 5 0 17 -9 27 -20 43 -48 156 -90 239 -90 29 0 156 50 206 81 8
5 25 13 37 19 30 13 179 17 226 6 50 -11 50 10 0 31 -25 10 -73 16 -143 17
-96 1 -113 -2 -194 -32 -49 -18 -115 -35 -145 -38 -50 -5 -64 -1 -131 31 -41
20 -82 43 -91 51 -14 12 -67 32 -294 108 -75 26 -258 41 -252 21z"/>
<path d="M13092 10049 c3 -8 32 -19 69 -25 65 -12 99 -24 179 -62 25 -12 51
-22 58 -22 21 0 92 -53 142 -105 67 -69 91 -79 190 -79 47 0 99 3 115 8 28 8
25 10 -36 21 -89 18 -157 48 -237 108 -81 59 -124 82 -176 91 -22 4 -72 20
-111 36 -85 34 -200 51 -193 29z"/>
<path d="M10840 10336 c0 -130 1 -134 23 -140 12 -3 34 -6 50 -6 l27 0 0 134
0 133 -37 7 c-21 3 -44 6 -50 6 -10 0 -13 -33 -13 -134z"/>
<path d="M11060 10316 l0 -133 31 -7 c62 -12 59 -18 59 134 l0 140 -45 0 -45
0 0 -134z"/>
<path d="M10840 9790 l0 -140 50 0 50 0 0 134 0 134 -31 6 c-73 14 -69 21 -69
-134z"/>
<path d="M11060 9780 l0 -140 45 0 45 0 0 134 c0 146 0 146 -61 146 l-29 0 0
-140z"/>
<path d="M7228 10383 l-28 -4 0 -135 c0 -148 -3 -142 69 -128 l31 7 0 133 c0
149 6 139 -72 127z"/>
<path d="M6997 10363 c-11 -10 -8 -261 2 -268 6 -3 28 -3 50 1 l41 7 0 133 0
134 -43 0 c-24 0 -47 -3 -50 -7z"/>
<path d="M7218 9843 c-16 -4 -18 -19 -18 -139 l0 -134 50 0 50 0 0 140 0 140
-32 -1 c-18 -1 -41 -3 -50 -6z"/>
<path d="M7003 9834 c-10 -4 -13 -42 -13 -140 l0 -134 50 0 51 0 -3 138 -3
137 -35 2 c-19 1 -41 0 -47 -3z"/>
<path d="M12250 9371 l-35 -6 -3 -128 -3 -129 43 7 c24 4 47 10 51 14 11 11 4
244 -8 246 -5 1 -26 -1 -45 -4z"/>
<path d="M11910 9311 l-35 -6 -3 -122 c-3 -137 -7 -129 71 -117 l37 7 0 123
c0 137 5 128 -70 115z"/>
<path d="M12687 9383 c-10 -9 -9 -241 1 -247 5 -3 28 -8 50 -12 l42 -7 0 127
0 126 -27 6 c-16 3 -35 8 -44 10 -8 2 -18 1 -22 -3z"/>
<path d="M12880 9226 l0 -125 43 -9 c23 -5 45 -7 50 -5 4 2 7 58 7 124 0 119
0 120 -26 129 -14 6 -36 10 -50 10 l-24 0 0 -124z"/>
<path d="M13080 9196 c0 -68 3 -127 8 -129 4 -3 25 -7 47 -8 l40 -4 3 119 c1
66 -1 123 -5 127 -4 4 -27 10 -50 14 l-43 7 0 -126z"/>
<path d="M9462 8877 c-20 -22 -22 -33 -22 -166 0 -131 1 -142 18 -137 9 3 43
8 75 12 l57 6 0 128 c0 114 -2 130 -21 154 -27 34 -77 36 -107 3z"/>
<path d="M9777 8888 c-28 -22 -37 -66 -37 -182 l0 -113 76 -9 c58 -8 77 -7 81
2 2 7 3 72 1 144 -3 124 -4 133 -27 151 -27 22 -70 25 -94 7z"/>
<path d="M6016 8613 c26 -38 65 -92 86 -120 l39 -53 284 0 284 0 39 53 c21 28
60 82 86 120 l48 67 -457 0 -457 0 48 -67z"/>
<path d="M7332 8672 c2 -4 39 -58 83 -120 l79 -112 286 0 286 0 82 114 c45 63
82 117 82 120 0 3 -203 6 -451 6 -248 0 -449 -4 -447 -8z"/>
<path d="M5670 8050 l0 -230 150 0 150 0 0 230 0 230 -150 0 -150 0 0 -230z"/>
<path d="M6972 8053 l3 -228 150 0 150 0 3 228 2 227 -155 0 -155 0 2 -227z"/>
<path d="M8290 8050 l0 -230 150 0 150 0 0 230 0 230 -150 0 -150 0 0 -230z"/>
<path d="M5745 7698 c-69 -38 -108 -101 -108 -174 0 -167 206 -247 317 -124
32 36 56 91 56 133 0 51 -57 134 -112 163 -32 17 -125 18 -153 2z"/>
<path d="M7033 7685 c-103 -62 -121 -190 -40 -282 112 -127 317 -48 317 121 0
56 -14 93 -48 130 -58 61 -156 75 -229 31z"/>
<path d="M12614 7651 c-50 -13 -99 -47 -130 -93 l-29 -41 -3 -350 -3 -349 43
6 c24 3 106 13 183 21 77 8 155 18 173 21 l33 5 -3 312 c-3 297 -4 314 -25
352 -48 90 -149 139 -239 116z"/>
<path d="M13466 7646 c-21 -8 -52 -27 -68 -43 -56 -52 -58 -65 -58 -398 0
-168 2 -305 4 -305 2 0 81 -11 176 -25 95 -14 176 -25 181 -25 13 0 11 616 -2
665 -29 105 -137 166 -233 131z"/>
<path d="M15363 6921 c-26 -12 -52 -35 -69 -61 -26 -39 -28 -51 -32 -162 -3
-66 -1 -123 4 -128 5 -4 84 -11 177 -15 l167 -7 0 104 c-1 168 -24 229 -105
268 -51 25 -88 25 -142 1z"/>
<path d="M14851 6920 c-46 -11 -82 -39 -108 -86 -20 -34 -23 -53 -23 -162 l0
-123 163 6 c89 4 168 9 176 11 11 3 13 27 9 117 -5 123 -16 157 -68 200 -26
22 -92 49 -110 46 -3 -1 -20 -5 -39 -9z"/>
<path d="M14280 6871 c-19 -10 -48 -37 -65 -60 -29 -42 -30 -46 -33 -177 -2
-74 0 -134 5 -134 15 -1 318 32 342 36 23 5 23 6 19 112 -2 59 -10 118 -17
132 -19 35 -61 79 -93 96 -38 20 -117 18 -158 -5z"/>
<path d="M15875 6866 c-22 -13 -51 -43 -63 -65 -20 -36 -22 -51 -20 -153 l3
-112 165 -17 c91 -9 169 -13 174 -9 4 5 6 64 4 132 -3 91 -8 131 -21 155 -46
86 -162 119 -242 69z"/>
<path d="M15365 6176 c-37 -16 -82 -67 -93 -104 -4 -15 -7 -79 -7 -142 l0
-115 165 -6 c91 -4 169 -5 174 -2 5 3 6 63 4 132 -5 142 -16 173 -74 217 -42
33 -122 42 -169 20z"/>
<path d="M14825 6166 c-37 -17 -80 -62 -94 -99 -6 -16 -11 -81 -11 -146 l0
-118 163 4 c89 3 168 6 175 8 15 5 17 173 1 228 -13 47 -63 106 -106 123 -41
17 -89 17 -128 0z"/>
<path d="M10018 6488 l-118 -101 0 -233 0 -233 43 -5 c54 -7 321 -44 370 -52
l37 -7 0 237 0 237 -102 130 c-56 71 -105 129 -108 129 -3 0 -58 -46 -122
-102z"/>
<path d="M8733 6399 l-103 -131 0 -235 0 -236 38 7 c48 8 315 45 370 52 l42 5
0 234 0 234 -116 100 c-63 56 -118 101 -122 101 -4 0 -53 -59 -109 -131z"/>
<path d="M6900 5715 l0 -25 200 0 200 0 0 25 0 25 -200 0 -200 0 0 -25z"/>
<path d="M6900 5545 l0 -25 200 0 200 0 0 25 0 25 -200 0 -200 0 0 -25z"/>
<path d="M11220 4678 c-169 -48 -186 -276 -25 -349 53 -24 99 -24 153 2 110
53 137 204 54 292 -49 53 -118 73 -182 55z"/>
<path d="M4466 3229 c-76 -10 -190 -33 -361 -73 -152 -36 -354 -51 -481 -37
-85 9 -133 19 -274 57 -42 11 -11 -11 75 -54 151 -75 309 -112 478 -112 101 0
182 12 357 50 299 64 640 95 776 70 38 -7 86 -19 107 -26 21 -7 35 -9 32 -4
-14 23 -198 92 -308 116 -88 19 -307 26 -401 13z"/>
<path d="M6840 1353 c-60 -6 -251 -43 -350 -68 -143 -35 -232 -46 -396 -46
-154 -1 -244 12 -361 51 l-58 20 25 -22 c42 -35 185 -98 288 -125 84 -23 118
-26 257 -27 148 0 174 3 336 37 255 54 422 77 604 84 141 5 170 3 249 -16 49
-12 91 -20 93 -18 7 8 -139 68 -221 91 -139 41 -314 55 -466 39z"/>
<path d="M9228 1274 c-48 -7 -154 -29 -235 -48 -191 -45 -276 -56 -431 -56
-143 0 -213 9 -334 44 -45 14 -84 23 -86 21 -8 -8 137 -80 221 -110 210 -75
386 -79 692 -17 225 46 363 67 546 82 134 12 239 4 340 -26 28 -8 53 -13 55
-11 6 6 -120 61 -197 87 -152 50 -383 64 -571 34z"/>
<path d="M11718 1245 c-48 -8 -154 -30 -235 -49 -205 -49 -300 -59 -477 -53
-141 4 -240 21 -361 62 -36 12 59 -46 125 -76 161 -75 367 -109 539 -90 54 6
161 24 237 40 274 58 608 98 722 86 34 -4 97 -15 140 -25 42 -10 78 -17 80
-16 8 8 -175 82 -257 103 -80 21 -123 26 -261 29 -109 2 -194 -2 -252 -11z"/>
<path d="M8210 844 c-52 -8 -160 -30 -240 -49 -197 -47 -260 -55 -438 -55
-156 0 -251 13 -359 49 -29 10 -53 14 -53 10 0 -17 209 -110 305 -136 88 -23
119 -26 260 -26 111 0 183 4 235 16 223 48 331 68 484 87 221 28 355 28 470 1
49 -12 91 -20 93 -17 8 8 -175 79 -266 103 -124 32 -347 40 -491 17z"/>
<path d="M10784 779 c-83 -9 -191 -30 -379 -73 -279 -65 -542 -58 -770 19
l-20 7 20 -17 c35 -30 176 -93 270 -121 83 -26 104 -28 275 -28 168 -1 197 2
310 27 409 92 732 117 903 69 37 -11 67 -16 67 -12 0 13 -165 78 -250 100 -82
21 -237 40 -305 38 -22 0 -76 -4 -121 -9z"/>
<path d="M9330 2695 l0 -225 75 0 75 0 0 225 0 225 -75 0 -75 0 0 -225z"/>
<path d="M9840 2695 l0 -225 70 0 70 0 0 225 0 225 -70 0 -70 0 0 -225z"/>
<path d="M12300 2695 l0 -225 70 0 70 0 0 225 0 225 -70 0 -70 0 0 -225z"/>
<path d="M12800 2695 l0 -225 70 0 70 0 0 225 0 225 -70 0 -70 0 0 -225z"/>
<path d="M44997 16492 c61 -59 204 -196 316 -304 l204 -198 178 0 c97 0 175 4
173 8 -1 5 -99 142 -217 305 l-215 297 -275 -1 -276 0 112 -107z"/>
<path d="M39379 15885 c-152 -26 -278 -74 -406 -157 -140 -91 -238 -202 -303
-343 -60 -130 -74 -193 -75 -340 0 -275 64 -436 248 -612 140 -134 243 -186
614 -308 373 -123 519 -207 574 -330 34 -74 38 -202 10 -292 -72 -234 -362
-390 -658 -353 -221 28 -408 130 -520 285 -20 28 -23 29 -40 14 -153 -130
-313 -272 -313 -278 0 -16 78 -107 126 -147 187 -155 407 -238 709 -264 362
-32 698 80 912 303 167 175 243 368 243 621 0 239 -48 370 -189 520 -107 112
-274 209 -461 266 -52 16 -149 45 -215 65 -396 121 -553 233 -594 423 -15 73
-14 133 5 205 34 131 104 216 227 277 103 50 192 70 328 70 199 0 344 -55 467
-178 45 -44 78 -70 85 -65 22 13 317 285 317 293 0 12 -143 145 -193 179 -153
104 -398 162 -677 160 -80 -1 -179 -7 -221 -14z"/>
<path d="M21095 15818 c-3 -7 -4 -2819 -3 -6248 l3 -6235 88 -3 87 -3 0 6251
0 6250 -85 0 c-59 0 -87 -4 -90 -12z"/>
<path d="M23007 15824 c-11 -12 -8 -1948 3 -2049 37 -325 211 -629 463 -809
305 -218 746 -272 1116 -137 376 137 646 467 716 875 13 75 15 240 15 1107 l0
1019 -205 0 -205 0 0 -943 c0 -582 -4 -974 -10 -1024 -46 -367 -236 -617 -527
-694 -105 -28 -307 -30 -408 -4 -117 29 -219 88 -311 180 -68 68 -88 96 -131
185 -29 58 -62 143 -75 190 l-23 85 -5 1010 -5 1010 -201 3 c-110 1 -203 -1
-207 -4z"/>
<path d="M26090 14330 l0 -1500 205 0 205 0 0 1227 c0 1042 2 1225 14 1213 7
-8 372 -546 811 -1195 439 -649 809 -1195 822 -1213 l24 -32 257 2 257 3 0
1495 0 1495 -205 0 -205 0 -5 -1221 -5 -1221 -820 1223 -820 1224 -267 0 -268
0 0 -1500z"/>
<path d="M29510 14330 l0 -1500 205 0 205 0 0 1500 0 1500 -205 0 -205 0 0
-1500z"/>
<path d="M30340 15821 c0 -4 258 -678 574 -1497 l574 -1489 190 -3 c144 -2
192 1 199 10 10 13 1160 2931 1170 2967 5 21 2 21 -215 21 -166 0 -223 -3
-229 -12 -4 -7 -211 -555 -459 -1218 -249 -663 -455 -1198 -458 -1190 -3 8
-201 555 -439 1215 l-434 1200 -236 3 c-134 1 -237 -2 -237 -7z"/>
<path d="M33470 14330 l0 -1500 1003 2 1002 3 0 190 0 190 -797 3 -798 2 0
475 0 475 710 0 710 0 -2 193 -3 192 -707 3 -708 2 0 440 0 440 760 0 760 0 0
195 0 195 -965 0 -965 0 0 -1500z"/>
<path d="M36110 14330 l0 -1500 205 0 205 0 0 660 0 660 223 0 222 0 380 -660
380 -660 252 0 c146 0 253 4 253 9 0 5 -187 309 -415 676 -228 367 -413 670
-410 675 2 4 27 10 55 14 198 26 422 178 543 367 81 128 117 254 117 421 0
367 -170 628 -494 758 -176 71 -280 79 -968 80 l-548 0 0 -1500z m1215 1105
c162 -40 261 -113 318 -233 31 -66 32 -70 32 -212 0 -128 -3 -152 -23 -202
-34 -83 -108 -160 -195 -203 -126 -60 -180 -67 -579 -72 l-358 -5 0 477 0 477
368 -5 c305 -3 379 -7 437 -22z"/>
<path d="M41160 14330 l0 -1500 205 0 205 0 0 1500 0 1500 -205 0 -205 0 0
-1500z"/>
<path d="M42057 15823 c-4 -3 -7 -91 -7 -195 l0 -188 485 0 485 0 0 -1305 0
-1305 205 0 205 0 0 1305 0 1305 480 0 480 0 0 195 0 195 -1163 0 c-640 0
-1167 -3 -1170 -7z"/>
<path d="M45421 15813 c-14 -27 -1311 -2972 -1311 -2978 0 -3 108 -5 239 -5
l239 0 148 370 148 370 707 0 707 0 66 -162 c36 -90 104 -255 150 -368 l83
-205 238 -3 237 -2 -4 22 c-3 13 -288 682 -633 1488 -345 806 -630 1471 -632
1478 -4 9 -51 12 -189 12 -164 0 -184 -2 -193 -17z m457 -1218 l269 -660 -279
-3 c-153 -1 -404 -1 -557 0 l-279 3 272 660 c150 363 276 669 280 680 l8 20 9
-20 c5 -11 130 -317 277 -680z"/>
<path d="M29810 11149 c-359 -34 -692 -190 -940 -439 -220 -221 -351 -467
-422 -792 -19 -89 -22 -134 -22 -328 -1 -196 2 -240 22 -337 60 -296 193 -559
387 -762 179 -187 371 -311 614 -395 181 -63 297 -81 531 -81 219 0 327 13
530 62 165 39 303 89 458 163 l142 69 0 740 0 741 -510 0 -510 0 0 -145 0
-145 355 0 355 0 0 -498 0 -499 -98 -46 c-213 -100 -410 -146 -657 -154 -256
-9 -416 22 -611 117 -355 172 -589 506 -660 940 -24 141 -14 409 19 550 90
381 303 664 623 827 185 95 330 128 564 128 86 0 188 -6 230 -14 216 -39 419
-138 576 -283 l44 -40 97 90 c54 49 107 100 118 112 l20 22 -60 55 c-79 72
-232 173 -327 217 -236 107 -563 155 -868 125z"/>
<path d="M36865 11154 c-298 -35 -508 -129 -661 -298 -142 -155 -204 -324
-204 -556 0 -150 20 -246 74 -355 115 -232 288 -342 781 -501 308 -98 419
-151 519 -244 111 -103 148 -192 149 -355 1 -132 -17 -191 -88 -291 -82 -115
-212 -197 -373 -235 -73 -18 -107 -20 -212 -16 -145 6 -215 22 -325 76 -119
59 -218 145 -295 258 -15 22 -16 22 -152 -75 -75 -53 -137 -102 -138 -109 0
-18 155 -177 223 -229 244 -183 667 -262 978 -181 368 96 621 328 706 648 37
141 17 393 -42 524 -46 103 -154 223 -275 305 -121 82 -226 126 -545 229 -359
116 -536 226 -608 380 -26 55 -31 79 -35 169 -6 126 7 192 55 285 86 163 278
268 523 283 244 16 455 -72 597 -249 l31 -39 131 103 c72 57 131 106 131 110
0 12 -122 129 -184 176 -180 135 -509 216 -761 187z"/>
<path d="M23040 9585 l0 -1496 618 4 c694 4 680 3 933 87 334 111 617 328 801
616 91 143 164 337 193 514 20 126 23 387 6 509 -79 549 -459 990 -1010 1171
-253 83 -260 84 -938 88 l-603 3 0 -1496z m1230 1181 c251 -50 495 -175 660
-339 219 -217 331 -498 333 -832 2 -215 -34 -377 -122 -560 -164 -340 -496
-572 -921 -642 -70 -11 -198 -17 -482 -20 l-388 -5 0 1212 0 1212 418 -5 c336
-3 433 -8 502 -21z"/>
<path d="M26160 9585 l0 -1495 955 0 955 0 0 140 0 140 -800 0 -800 0 0 565 0
565 725 0 725 0 0 145 0 145 -725 0 -725 0 0 500 0 500 775 0 775 0 0 145 0
145 -930 0 -930 0 0 -1495z"/>
<path d="M31860 9585 l0 -1495 850 0 850 0 0 140 0 140 -695 0 -695 0 0 1355
0 1355 -155 0 -155 0 0 -1495z"/>
<path d="M33930 9585 l0 -1495 155 0 155 0 0 1495 0 1495 -155 0 -155 0 0
-1495z"/>
<path d="M38082 10938 l3 -143 498 -3 497 -2 0 -1350 0 -1350 160 0 160 0 0
1350 0 1350 498 2 497 3 3 143 3 142 -1161 0 -1161 0 3 -142z"/>
<path d="M40762 10038 c4 -1038 4 -1044 26 -1158 52 -259 145 -443 300 -592
216 -208 462 -289 832 -275 310 12 505 88 696 270 183 174 274 366 318 668 14
91 16 254 16 1118 l0 1011 -155 0 -155 0 0 -978 c0 -610 -4 -1009 -10 -1062
-16 -132 -46 -236 -102 -350 -43 -88 -63 -117 -127 -181 -84 -83 -182 -140
-311 -181 -65 -20 -96 -23 -230 -23 -116 0 -171 4 -220 18 -81 22 -209 84
-275 134 -155 119 -259 345 -285 621 -6 64 -10 492 -10 1055 l0 947 -155 0
-156 0 3 -1042z"/>
<path d="M43620 9586 l0 -1496 578 0 c623 0 658 2 867 57 127 33 223 70 355
139 260 135 492 372 627 637 162 321 187 802 62 1168 -63 183 -187 377 -339
530 -218 219 -488 358 -835 430 -106 22 -130 23 -712 27 l-603 3 0 -1495z
m1248 1176 c477 -107 807 -395 928 -812 110 -378 43 -796 -176 -1090 -169
-226 -445 -393 -753 -455 -127 -25 -294 -35 -624 -35 l-313 0 0 1211 0 1211
423 -5 c381 -4 431 -6 515 -25z"/>
<path d="M46740 9585 l0 -1495 160 0 160 0 0 1495 0 1495 -160 0 -160 0 0
-1495z"/>
<path d="M38077 6399 c-317 -46 -585 -220 -720 -469 -44 -80 -84 -215 -93
-313 -8 -95 11 -259 42 -357 65 -206 247 -394 489 -506 40 -18 187 -71 327
-117 372 -123 508 -198 573 -317 29 -53 30 -60 30 -175 0 -116 -1 -123 -33
-187 -101 -205 -370 -331 -635 -298 -211 26 -391 117 -498 252 -23 29 -45 53
-50 53 -12 0 -329 -275 -329 -285 0 -26 136 -159 224 -219 201 -138 553 -218
840 -192 417 39 728 245 864 573 50 121 65 218 60 392 -8 229 -48 334 -181
474 -122 127 -292 222 -517 287 -327 96 -461 148 -569 219 -143 96 -194 185
-194 346 0 71 5 109 21 152 72 199 263 307 540 308 205 0 348 -54 472 -180
l75 -76 163 149 c89 82 162 152 162 156 0 13 -142 145 -193 180 -105 71 -241
117 -435 146 -104 16 -339 18 -435 4z"/>
<path d="M41094 6395 c-345 -53 -617 -187 -850 -419 -312 -313 -470 -740 -451
-1221 10 -240 62 -439 174 -657 76 -149 160 -264 283 -388 130 -130 247 -213
415 -296 219 -107 398 -147 665 -147 110 0 198 6 265 17 189 33 405 119 570
227 77 51 295 255 295 276 0 6 -77 68 -171 139 l-171 128 -26 -35 c-125 -167
-335 -301 -537 -344 -115 -25 -340 -24 -465 3 -435 91 -736 406 -837 875 -25
114 -25 407 0 529 94 469 395 805 812 909 117 30 336 37 444 15 192 -39 336
-113 466 -238 45 -43 85 -78 89 -78 4 0 81 57 172 126 l164 125 -19 28 c-34
48 -174 175 -241 219 -128 84 -297 152 -482 193 -122 27 -430 35 -564 14z"/>
<path d="M23040 4839 l0 -1500 603 4 c648 5 641 4 854 62 469 128 836 443
1008 868 76 186 113 454 95 688 -21 279 -90 483 -239 709 -73 112 -259 297
-379 379 -169 114 -391 207 -603 251 -160 33 -303 40 -831 40 l-508 0 0 -1501z
m1071 1201 c401 -40 717 -203 922 -476 288 -384 312 -957 56 -1372 -58 -95
-184 -231 -278 -302 -81 -61 -250 -149 -351 -183 -188 -64 -238 -69 -692 -74
l-418 -5 0 1211 0 1211 329 0 c181 0 375 -5 432 -10z"/>
<path d="M26377 6334 c-4 -4 -7 -679 -7 -1501 l0 -1493 160 0 160 0 -2 1498
-3 1497 -151 3 c-82 1 -153 -1 -157 -4z"/>
<path d="M28977 6333 c-4 -3 -7 -678 -7 -1500 l0 -1493 568 0 c596 0 680 5
837 45 343 89 583 301 661 585 25 90 25 309 1 400 -40 151 -140 311 -251 401
-97 79 -258 149 -346 149 -17 0 -1 11 50 33 134 59 254 151 327 254 133 187
149 480 39 708 -118 242 -357 382 -711 415 -120 11 -1158 14 -1168 3z m1245
-389 c84 -32 141 -77 187 -145 58 -87 76 -153 75 -274 -1 -78 -6 -113 -23
-158 -31 -79 -112 -165 -193 -205 -112 -54 -179 -62 -548 -62 l-330 0 0 436 0
435 388 -3 c367 -3 390 -4 444 -24z m18 -1243 c208 -62 328 -180 365 -358 41
-191 1 -349 -117 -467 -146 -145 -284 -176 -800 -176 l-298 0 0 516 0 515 388
-3 c366 -4 391 -6 462 -27z"/>
<path d="M31847 6333 c-4 -3 -7 -678 -7 -1500 l0 -1493 210 0 210 0 0 660 0
660 221 -2 221 -3 378 -655 378 -655 256 -3 c141 -1 256 1 256 5 -1 5 -189
310 -419 678 -230 369 -417 671 -416 673 2 2 36 10 77 19 272 56 515 265 603
520 89 255 37 590 -123 789 -68 83 -152 148 -267 204 -117 58 -225 86 -385
100 -126 11 -1183 14 -1193 3z m1207 -386 c258 -61 379 -224 363 -492 -11
-188 -98 -316 -254 -375 -127 -48 -169 -52 -545 -57 l-358 -5 0 477 0 477 363
-5 c289 -3 376 -7 431 -20z"/>
<path d="M34637 6333 c-4 -3 -7 -678 -7 -1500 l0 -1493 1005 0 1005 0 0 195 0
195 -795 0 -795 0 0 475 0 475 705 0 705 0 0 195 0 195 -705 0 -705 0 0 440 0
440 760 0 760 0 -2 193 -3 192 -961 3 c-528 1 -964 -1 -967 -5z"/>
<path d="M43157 6334 c-4 -4 -7 -679 -7 -1501 l0 -1493 210 0 210 0 -2 1498
-3 1497 -201 3 c-110 1 -203 -1 -207 -4z"/>
<path d="M45453 6283 c-81 -184 -1286 -2920 -1290 -2930 -4 -10 47 -13 235
-13 l240 0 148 370 148 370 709 -2 709 -3 147 -365 148 -365 242 -3 c137 -1
241 1 239 6 -1 5 -290 680 -642 1501 l-638 1491 -185 0 -184 0 -26 -57z m476
-1179 l268 -659 -279 -3 c-153 -1 -403 -1 -557 0 l-278 3 253 615 c341 827
306 747 317 723 5 -11 129 -316 276 -679z"/>
</g>
</svg>
